<svg xmlns="http://www.w3.org/2000/svg" viewBox="0 0 500 500"><ellipse cx="250" cy="350.02" rx="235.61" ry="136.03" style="fill:#f5f5f5"/><path d="m73.31 403.17-40.64-23.46c-2.29-1.32-2.29-3.47 0-4.79l236.39-136.48a9.19 9.19 0 0 1 8.3 0L318 261.9c2.29 1.33 2.29 3.47 0 4.79L81.61 403.17a9.13 9.13 0 0 1-8.3 0ZM441.55 314.06l-73.53-42a4.79 4.79 0 0 0-4.33 0l-.76.44c-1.2.69-1.19 1.79 0 2.47L388 289l-25.63 14.79-24.77-14.27a4.79 4.79 0 0 0-4.33 0l-.76.44a1.32 1.32 0 0 0 0 2.5l74.77 43.16.81-1 .4.23 29.51-17 .23.14.43-.52.63-.36-.22-.13Z" style="fill:#e6e6e6"/><path d="M218.75 433.81a33.12 33.12 0 0 1-16.46-4c-.53-.31-1-.62-1.49-1l-4.1-2.81 24-3.52 1.61-3.36L217 416l-22.49 3.28 1.1-3.12c1-2.91 3.43-5.5 6.94-7.5a33.3 33.3 0 0 1 16.19-3.86 39 39 0 0 1 7.13.65l73-42.16a9.34 9.34 0 0 1-.4-5.81c.82-3.26 3.3-6.15 7.19-8.36a35.9 35.9 0 0 1 32.68.15c.52.3 1 .62 1.48.95l4.1 2.89-24 3.51-1.61 3.36 5.34 3.13 22.48-3.28-1.1 3.12c-1 2.91-3.43 5.5-6.94 7.5a33.3 33.3 0 0 1-16.19 3.86 38.13 38.13 0 0 1-7.13-.66l-73 42.16a9.37 9.37 0 0 1 .4 5.82c-.82 3.26-3.3 6.15-7.19 8.36a33.32 33.32 0 0 1-16.23 3.82Z" style="fill:#e0e0e0"/><path d="M62 335.31v-22.64s-1.15-12.78-10.1-22.47-17-6.39-19.58-1.79 3.33 13.33 7.12 18.24C44 312.56 62 340 62 352.31Z" style="fill:#ba68c8"/><path d="M62 335.31v-22.64s-1.15-12.78-10.1-22.47-17-6.39-19.58-1.79 3.33 13.33 7.12 18.24C44 312.56 62 340 62 352.31Z" style="opacity:.15"/><path d="M62 331.73a.55.55 0 0 1-.54-.46c-4.09-24.69-22.87-41.64-23.06-41.8a.57.57 0 0 1 0-.79.54.54 0 0 1 .78 0c.2.17 19.27 17.36 23.42 42.45a.55.55 0 0 1-.45.63Z" style="fill:#fff"/><path d="M65.88 344.93s.78-2.36-2.7-3-4.8-3.49-5.13-8.34-1.79-8.33-6.15-9.05-7.87 1.48-10.7-.7-10.15-7.42-16.2-5.02-4.1 7.61-.93 11 4.09 4.51 1.67 10-.66 10.62 4.95 11.91 8.74.62 8.83 6.78.94 8.89 4 11.3 12.74 1.33 16.76 2.26a8.76 8.76 0 0 1 5.64 4.52Z" style="fill:#ba68c8"/><path d="M65.88 370.28a.46.46 0 0 1-.45-.32c-10.22-30.32-33.32-42.57-33.56-42.69a.49.49 0 0 1-.2-.65.48.48 0 0 1 .65-.2c.23.12 23.68 12.52 34 43.23a.49.49 0 0 1-.3.61.47.47 0 0 1-.14.02Z" style="fill:#fff"/><path d="M51.23 343.86h-.1c-6.67-1.52-17.34-.7-17.45-.69a.48.48 0 0 1-.07-1c.44 0 10.92-.84 17.73.71a.48.48 0 0 1 .36.58.49.49 0 0 1-.47.4ZM56.67 358.43c-3.05 0-6.28-.2-6.48-.21a.48.48 0 0 1-.45-.52.47.47 0 0 1 .51-.45c.07 0 7.52.47 10.43 0a.49.49 0 0 1 .55.4.48.48 0 0 1-.4.55 30.38 30.38 0 0 1-4.16.23ZM48.1 340.3a.48.48 0 0 1-.46-.5 36.76 36.76 0 0 1 2.15-10.16.48.48 0 0 1 .62-.27.49.49 0 0 1 .28.62 36.16 36.16 0 0 0-2.08 9.86.49.49 0 0 1-.51.45Z" style="fill:#fff"/><path d="m137 75.72-6.47 3.73a8.09 8.09 0 0 0 .06-.85v-1.87c0-3.34-2.34-4.69-5.23-3a10 10 0 0 0-3.12 3c-.47-4.19-3.76-5.75-7.75-3.44a17.26 17.26 0 0 0-7.82 13.54v2.8a7.46 7.46 0 0 0 .66 3.25L102 96a6.4 6.4 0 0 0-2.9 5c0 1.85 1.3 2.6 2.9 1.67l35-20.22a6.42 6.42 0 0 0 2.89-5c.04-1.9-1.25-2.65-2.89-1.73ZM94.3 58.55l-3.57 1.37v-7.86c0-6.22-5-7.72-10.36-4.6-5.37 3.11-9.76 10.68-9.76 16.91v1.14a5.27 5.27 0 0 0-4.54.7 15.53 15.53 0 0 0-7 12.17v.52l-5 2.87a10.25 10.25 0 0 0-4.62 8c0 2.95 2.07 4.15 4.62 2.67l40.23-23.2a10.24 10.24 0 0 0 4.63-8c0-2.97-2.07-4.17-4.63-2.69Z" style="fill:#ebebeb"/><path d="m219.39 356.71 34.94-20.2c3.6-2.08 5.4-4.81 5.4-7.53v-4.86l-36.23-20.44a7.7 7.7 0 0 1-3.48-6v-37.29l-61 35.26v37.27a7.69 7.69 0 0 0 3.47 6l30.84 17.77c7.18 4.18 18.86 4.18 26.06.02Z" style="fill:#ba68c8"/><path d="m219.39 356.71 34.94-20.2c3.6-2.08 5.4-4.81 5.4-7.53v-4.86l-36.23-20.44a7.7 7.7 0 0 1-3.48-6v-37.29l-61 35.26v37.27a7.69 7.69 0 0 0 3.47 6l30.84 17.77c7.18 4.18 18.86 4.18 26.06.02Z" style="opacity:.4"/><path d="M173.65 340.54v4.84l-11.19-6.44a7.73 7.73 0 0 1-3.47-6v-37.29l11.63-6.71c.24 2.95.5 6 .74 9l-8.15 4.72v27.84a7.65 7.65 0 0 0 3.47 6Z" style="opacity:.2"/><path d="M163.21 330.49a7.66 7.66 0 0 0 3.47 6l26.63 15.34c7.2 4.16 18.88 4.16 26.08 0l35-20.2c7.2-4.15 7.2-10.89 0-15l-26.64-15.35a7.68 7.68 0 0 1-3.48-6v-27.9l-61 35.26Z" style="fill:#ba68c8"/><path d="M163.21 330.49a7.66 7.66 0 0 0 3.47 6l26.63 15.34c7.2 4.16 18.88 4.16 26.08 0l35-20.2c7.2-4.15 7.2-10.89 0-15l-26.64-15.35a7.68 7.68 0 0 1-3.48-6v-27.9l-61 35.26Z" style="opacity:.30000000000000004"/><path d="m234.79 305.35-7.08-4.09a7.68 7.68 0 0 1-3.48-6v-27.88l-61 35.26v27.85a7.66 7.66 0 0 0 3.47 6l7 4Z" style="fill:#ba68c8;opacity:.6000000000000001"/><path d="m234.79 305.35-7.08-4.09a7.68 7.68 0 0 1-3.48-6v-27.88l-61 35.26v27.85a7.66 7.66 0 0 0 3.47 6l7 4Z" style="opacity:.30000000000000004"/><path d="M259.74 324.12V329c0 2.73-1.81 5.44-5.4 7.53L219.4 356.7a26.14 26.14 0 0 1-12.4 3.09V355a26.14 26.14 0 0 0 12.45-3.09l34.94-20.21c3.54-2.12 5.35-4.85 5.35-7.58Z" style="fill:#ba68c8"/><path d="M259.74 324.12V329c0 2.73-1.81 5.44-5.4 7.53L219.4 356.7a26.14 26.14 0 0 1-12.4 3.09V355a26.14 26.14 0 0 0 12.45-3.09l34.94-20.21c3.54-2.12 5.35-4.85 5.35-7.58Z" style="opacity:.2"/><path d="M65.22 372.33a9.32 9.32 0 0 0 8.43-.16l236-136.25a9.61 9.61 0 0 0 4.34-7.53V43.28a9.32 9.32 0 0 0-4.07-7.37 9.32 9.32 0 0 0-8.43.16L65.5 172.32a9.59 9.59 0 0 0-4.35 7.52V365a9.33 9.33 0 0 0 4.07 7.33Z" style="fill:#ba68c8"/><path d="M65.22 372.33a9.32 9.32 0 0 0 8.43-.16l236-136.25a9.61 9.61 0 0 0 4.34-7.53V43.28a9.32 9.32 0 0 0-4.07-7.37 9.32 9.32 0 0 0-8.43.16L65.5 172.32a9.59 9.59 0 0 0-4.35 7.52V365a9.33 9.33 0 0 0 4.07 7.33Z" style="opacity:.30000000000000004"/><path d="m73.65 372.16 236-136.24a9.61 9.61 0 0 0 4.34-7.53V43.28c0-2.77-1.94-3.9-4.34-2.51L73.65 177a9.6 9.6 0 0 0-4.34 7.53v185.1c-.01 2.8 1.94 3.92 4.34 2.53Z" style="fill:#ba68c8"/><path d="m73.65 372.16 236-136.24a9.61 9.61 0 0 0 4.34-7.53V43.28c0-2.77-1.94-3.9-4.34-2.51L73.65 177a9.6 9.6 0 0 0-4.34 7.53v185.1c-.01 2.8 1.94 3.92 4.34 2.53Z" style="opacity:.5"/><path d="M73 377.13a9.42 9.42 0 0 1-7.79-.16 9.35 9.35 0 0 1-4.08-7.39V358l8.16 4.72v11.58c.01 2.53 1.61 3.7 3.71 2.83Z" style="fill:#ba68c8"/><path d="M73 377.13a9.42 9.42 0 0 1-7.79-.16 9.35 9.35 0 0 1-4.08-7.39V358l8.16 4.72v11.58c.01 2.53 1.61 3.7 3.71 2.83Z" style="opacity:.4"/><path d="M69.3 362.72v11.57c0 2.77 2 3.9 4.35 2.51l236-136.25A9.61 9.61 0 0 0 314 233v-11.59Z" style="fill:#ba68c8"/><path d="M69.3 362.72v11.57c0 2.77 2 3.9 4.35 2.51l236-136.25A9.61 9.61 0 0 0 314 233v-11.59Z" style="opacity:.30000000000000004"/><path d="M77.46 340.91V187.25a5.76 5.76 0 0 1 2.61-4.51L303.22 53.9c1.45-.83 2.61-.16 2.61 1.5v153.66a5.76 5.76 0 0 1-2.61 4.52L80.07 342.42c-1.44.83-2.61.15-2.61-1.51Z" style="fill:#ba68c8"/><path d="M77.46 340.91V187.25a5.76 5.76 0 0 1 2.61-4.51L303.22 53.9c1.45-.83 2.61-.16 2.61 1.5v153.66a5.76 5.76 0 0 1-2.61 4.52L80.07 342.42c-1.44.83-2.61.15-2.61-1.51Z" style="fill:#37474f"/><path d="M191.65 296.39a8 8 0 0 0-3.6 6.23c0 2.29 1.61 3.22 3.6 2.07a7.94 7.94 0 0 0 3.59-6.22c0-2.3-1.61-3.23-3.59-2.08ZM70.58 180.25a9.23 9.23 0 0 0-1.28 4.29v178.18L61.14 358V179.84a9 9 0 0 1 1.28-4.29Z" style="fill:#ba68c8"/><path d="M70.58 180.25a9.23 9.23 0 0 0-1.28 4.29v178.18L61.14 358V179.84a9 9 0 0 1 1.28-4.29Z" style="opacity:.7000000000000001"/><path d="m408.09 160.4-41.61 113.24a1.46 1.46 0 0 1-.73.78 4.15 4.15 0 0 1-3.79 0 1.45 1.45 0 0 1-.78-.93 1.6 1.6 0 0 1 0-.31 2.82 2.82 0 0 1 .15-.78l41.73-113.87a2.68 2.68 0 1 1 5 1.85Z" style="fill:#ba68c8"/><path d="m408.09 160.4-41.61 113.24a1.46 1.46 0 0 1-.73.78 4.15 4.15 0 0 1-3.79 0 1.45 1.45 0 0 1-.78-.93 1.6 1.6 0 0 1 0-.31 2.82 2.82 0 0 1 .15-.78l41.73-113.87a2.68 2.68 0 1 1 5 1.85Z" style="opacity:.5"/><path transform="rotate(-60 373.333 248.349)" style="fill:#ba68c8" d="M370.33 224.26h6v48.18h-6z"/><path transform="rotate(-60 373.333 248.349)" d="M370.33 224.26h6v48.18h-6z" style="opacity:.6000000000000001"/><path transform="rotate(-60 403.684 230.839)" style="fill:#ba68c8" d="M400.68 206.74h6v48.18h-6z"/><path transform="rotate(-60 403.684 230.839)" d="M400.68 206.74h6v48.18h-6z" style="opacity:.6000000000000001"/><path d="m374.14 152.62 22.25-12.85a5.87 5.87 0 0 1 9 4l36.94 172.82a1.49 1.49 0 0 1 .05.36 1.53 1.53 0 0 1 0 .37 1.44 1.44 0 0 1-.78.92 4.15 4.15 0 0 1-3.79 0 1.64 1.64 0 0 1-.74-.8.9.9 0 0 1 0-.16l-36.94-172.39a.59.59 0 0 0-1.05-.47l-22.26 12.85" style="fill:#ba68c8"/><path d="m374.14 152.62 22.25-12.85a5.87 5.87 0 0 1 9 4l36.94 172.82a1.49 1.49 0 0 1 .05.36 1.53 1.53 0 0 1 0 .37 1.44 1.44 0 0 1-.78.92 4.15 4.15 0 0 1-3.79 0 1.64 1.64 0 0 1-.74-.8.9.9 0 0 1 0-.16l-36.94-172.39a.59.59 0 0 0-1.05-.47l-22.26 12.85" style="opacity:.4"/><path d="M410.45 317.78 396.9 310a1.78 1.78 0 0 1-.81-1.4v-.32a1.76 1.76 0 0 1 .81-1.4l32.52-18.78a1.78 1.78 0 0 1 1.62 0l13.55 7.83a1.76 1.76 0 0 1 .81 1.4v.32a1.78 1.78 0 0 1-.81 1.4l-32.52 18.78a1.84 1.84 0 0 1-1.62-.05Z" style="fill:#ba68c8"/><path d="M396.33 307.43a1.61 1.61 0 0 0-.24.8v.32a1.78 1.78 0 0 0 .81 1.4l13.55 7.83a1.67 1.67 0 0 0 .81.19v-1.92Z" style="opacity:.1"/><path d="M411.26 316.05V318a1.64 1.64 0 0 0 .81-.19l16.26-9.39 16.26-9.42a1.78 1.78 0 0 0 .81-1.4v-.32a1.61 1.61 0 0 0-.24-.8Z" style="opacity:.15"/><path d="M404.58 290.29 391 282.47a1.79 1.79 0 0 1-.81-1.4v-.33a1.79 1.79 0 0 1 .81-1.4l32.52-18.77a1.78 1.78 0 0 1 1.62 0l13.55 7.82a1.79 1.79 0 0 1 .81 1.4v.33a1.79 1.79 0 0 1-.81 1.4l-32.52 18.77a1.76 1.76 0 0 1-1.59 0Z" style="fill:#ba68c8"/><path d="M390.45 280a1.61 1.61 0 0 0-.24.79v.33a1.79 1.79 0 0 0 .81 1.4l13.56 7.82a1.61 1.61 0 0 0 .8.2v-1.92Z" style="opacity:.1"/><path d="M405.38 288.57v1.92a1.62 1.62 0 0 0 .81-.2l16.26-9.38 16.26-9.39a1.79 1.79 0 0 0 .81-1.4v-.33a1.61 1.61 0 0 0-.24-.79Z" style="opacity:.15"/><path d="M398.7 262.81 385.14 255a1.79 1.79 0 0 1-.81-1.4v-.32a1.82 1.82 0 0 1 .81-1.4l32.52-18.77a1.78 1.78 0 0 1 1.62 0l13.56 7.82a1.81 1.81 0 0 1 .8 1.4v.32a1.81 1.81 0 0 1-.8 1.41l-32.52 18.77a1.78 1.78 0 0 1-1.62-.02Z" style="fill:#ba68c8"/><path d="M384.57 252.46a1.64 1.64 0 0 0-.24.8v.32a1.79 1.79 0 0 0 .81 1.4l6.78 3.92 6.78 3.91a1.62 1.62 0 0 0 .81.19v-1.91Z" style="opacity:.1"/><path d="M399.51 261.09V263a1.67 1.67 0 0 0 .81-.19l16.26-9.39 16.26-9.42a1.81 1.81 0 0 0 .8-1.41v-.32a1.67 1.67 0 0 0-.23-.79Z" style="opacity:.15"/><path d="m392.82 235.33-13.55-7.83a1.78 1.78 0 0 1-.81-1.4v-.32a1.78 1.78 0 0 1 .81-1.4l32.52-18.78a1.76 1.76 0 0 1 1.61 0l13.6 7.83a1.8 1.8 0 0 1 .81 1.4v.32a1.8 1.8 0 0 1-.81 1.4l-32.52 18.78a1.78 1.78 0 0 1-1.66 0Z" style="fill:#ba68c8"/><path d="M393.63 233.6v1.92a1.67 1.67 0 0 0 .81-.19l16.26-9.39 16.3-9.39a1.78 1.78 0 0 0 .81-1.4v-.32a1.64 1.64 0 0 0-.24-.8Z" style="opacity:.15"/><path d="M378.69 225a1.74 1.74 0 0 0-.23.8v.32a1.78 1.78 0 0 0 .81 1.4l13.55 7.83a1.64 1.64 0 0 0 .81.19v-1.94Z" style="opacity:.1"/><path d="m386.94 207.85-22.52-13a1.76 1.76 0 0 1-.81-1.4v-.32a1.78 1.78 0 0 1 .81-1.4l32.52-18.78a1.84 1.84 0 0 1 1.62 0l22.52 13a1.76 1.76 0 0 1 .81 1.4v.32a1.79 1.79 0 0 1-.81 1.4l-32.52 18.78a1.84 1.84 0 0 1-1.62 0Z" style="fill:#ba68c8"/><path d="M387.75 206.12V208a1.76 1.76 0 0 0 .81-.19l16.26-9.39 16.26-9.39a1.79 1.79 0 0 0 .81-1.4v-.32a1.61 1.61 0 0 0-.24-.8Z" style="opacity:.15"/><path d="M363.85 192.32a1.64 1.64 0 0 0-.24.8v.32a1.78 1.78 0 0 0 .81 1.4l22.52 13a1.79 1.79 0 0 0 .81.19v-1.92Z" style="opacity:.1"/><path d="M377.75 177.91 336.18 291l-.1.25a1.69 1.69 0 0 1-.67.66 4.24 4.24 0 0 1-3.8 0 1.44 1.44 0 0 1-.77-.94 1.5 1.5 0 0 1 0-.3 2.42 2.42 0 0 1 .16-.79l41.72-113.87a2.68 2.68 0 1 1 5 1.84Z" style="fill:#ba68c8"/><path d="M377.75 177.91 336.18 291l-.1.25a1.69 1.69 0 0 1-.67.66 4.24 4.24 0 0 1-3.8 0 1.44 1.44 0 0 1-.77-.94 1.5 1.5 0 0 1 0-.3 2.42 2.42 0 0 1 .16-.79l41.72-113.87a2.68 2.68 0 1 1 5 1.84Z" style="opacity:.5"/><path d="M376.82 157.27a4.14 4.14 0 0 0-1.79 4L412 334.1a1.52 1.52 0 0 1 .06.42 1.5 1.5 0 0 1 0 .3 1.46 1.46 0 0 1-.78.94 4.15 4.15 0 0 1-3.79 0 1.69 1.69 0 0 1-.74-.77l-.05-.22-36.9-172.33a9.57 9.57 0 0 1 4.36-9.79" style="fill:#ba68c8"/><path d="m412 334.1-37-172.82a4.14 4.14 0 0 1 1.79-4l-2.68-4.65a9.57 9.57 0 0 0-4.36 9.79l36.9 172.33.05.22a1.69 1.69 0 0 0 .74.77 4.15 4.15 0 0 0 3.79 0 1.46 1.46 0 0 0 .78-.94 1.5 1.5 0 0 0 0-.3 1.52 1.52 0 0 0-.01-.4Z" style="opacity:.4"/><path d="M343.85 76.71a1.07 1.07 0 0 1 .15.29 1.07 1.07 0 0 0-.15-.29ZM344.11 77.11a2 2 0 0 1 .11.35 2 2 0 0 0-.11-.35Z" style="fill:#ba68c8"/><path d="M116 363.17v-153a6.27 6.27 0 0 1 2.84-4.92L341.5 76.62a2 2 0 0 1 2-.2c-.54-.32-3.52-2-4-2.34a2 2 0 0 0-2.09.15L114.73 202.82a6.3 6.3 0 0 0-2.84 4.92v153a2 2 0 0 0 .83 1.84l4.06 2.34a1.91 1.91 0 0 1-.78-1.75Z" style="fill:#ebebeb"/><path d="M112.51 205.37a5.58 5.58 0 0 0-.62 2.37v23.07l4.06 2.34v-23a5.58 5.58 0 0 1 .63-2.41Z" style="fill:#ba68c8"/><path d="M112.51 205.37a5.58 5.58 0 0 0-.62 2.37v23.07l4.06 2.34v-23a5.58 5.58 0 0 1 .63-2.41Z" style="opacity:.15"/><path d="M118.8 205.21 341.5 76.62a2 2 0 0 1 2-.2c-.54-.32-3.52-2-4-2.34a2 2 0 0 0-2.09.15L114.73 202.82a6 6 0 0 0-2.22 2.55l4.08 2.35a5.92 5.92 0 0 1 2.21-2.51Z" style="fill:#ba68c8"/><path d="M118.8 205.21 341.5 76.62a2 2 0 0 1 2-.2c-.54-.32-3.52-2-4-2.34a2 2 0 0 0-2.09.15L114.73 202.82a6 6 0 0 0-2.22 2.55l4.08 2.35a5.92 5.92 0 0 1 2.21-2.51Z" style="fill:#fff;opacity:.4"/><path d="M344.34 78.24v153a6.28 6.28 0 0 1-2.84 4.92L118.8 364.79c-1.58.84-2.85.11-2.84-1.64v-153a6.27 6.27 0 0 1 2.84-4.92L341.5 76.6c1.57-.91 2.84-.17 2.84 1.64Z" style="fill:#fafafa"/><path d="M343.51 76.42a1.08 1.08 0 0 1 .2.16 1.46 1.46 0 0 0-.2-.16ZM344.28 77.63a3.06 3.06 0 0 1 .06.63 3.06 3.06 0 0 0-.06-.63Z" style="fill:#ba68c8"/><path d="M343.5 76.42ZM344.22 77.46a1.15 1.15 0 0 1 .06.17 1.15 1.15 0 0 0-.06-.17ZM344 77a.49.49 0 0 1 .1.15.49.49 0 0 0-.1-.15ZM343.7 76.58c.05 0 .11.08.15.13s-.1-.08-.15-.13Z" style="fill:#fafafa"/><path d="M344.34 78.26v10L116 220.13v-10a6.27 6.27 0 0 1 2.84-4.92L341.5 76.62c1.57-.91 2.84-.17 2.84 1.64Z" style="fill:#ba68c8"/><path d="M344.33 88.26v13L116 233.15v-13l4.26-2.47c1.14-.66 1.52-1.66 2.06-3.58l1.45-5c.45-1.74.92-2.93 2.07-3.59L175.17 177c1.15-.66 2-.73 2.91.71l1.77 3.22c.65 1.12 1 1.78 2.12 1.12Z" style="fill:#e6e6e6"/><path d="M336.3 83.63c1.22-.71 2.21-.14 2.21 1.27a4.9 4.9 0 0 1-2.21 3.83c-1.22.7-2.21.13-2.21-1.28a4.86 4.86 0 0 1 2.21-3.82ZM328.35 88.21c1.22-.7 2.21-.13 2.21 1.27a4.9 4.9 0 0 1-2.21 3.83c-1.22.7-2.21.13-2.21-1.28a4.88 4.88 0 0 1 2.21-3.82ZM320.4 92.79c1.22-.7 2.21-.13 2.21 1.28a4.86 4.86 0 0 1-2.21 3.82c-1.22.71-2.21.14-2.21-1.27a4.9 4.9 0 0 1 2.21-3.83Z" style="fill:#fff"/><path d="m125.45 221.1-3.25 1.9 1.24-2.39a.57.57 0 0 0 0-.58c-.09-.11-.26 0-.37.18l-1.76 3.39a.61.61 0 0 0 0 .12.47.47 0 0 0 0 .17.33.33 0 0 0 0 .15.13.13 0 0 0 0 .07l1.76 1.36a.19.19 0 0 0 .18 0 .65.65 0 0 0 .17-.81l-1.24-.95 3.25-1.88a.69.69 0 0 0 .26-.55c.02-.15-.1-.28-.24-.18ZM128.16 219.53l3.25-1.87-1.24-1c-.11-.08-.12-.33 0-.55s.26-.33.37-.25l1.76 1.35a.43.43 0 0 1 0 .07.61.61 0 0 1 0 .15 1.11 1.11 0 0 1 0 .17v.13l-1.76 3.39a.5.5 0 0 1-.17.2.15.15 0 0 1-.2 0 .59.59 0 0 1 0-.59l1.24-2.38-3.25 1.88c-.14.08-.26 0-.26-.25a.71.71 0 0 1 .26-.45ZM138.82 210.18c0-.2-.19-.18-.28 0l-.44 1.09c-.76-.09-1.68.65-2.3 2-.8 1.7-.8 3.72 0 4.49a1.15 1.15 0 0 0 1.46.09 4 4 0 0 0 1.46-1.77.57.57 0 0 0 0-.57c-.1-.1-.27 0-.37.21-.6 1.27-1.58 1.84-2.18 1.26s-.6-2.08 0-3.36c.43-.9 1-1.44 1.58-1.47l-.34.82c-.08.21 0 .41.13.32l1.33-.86a.45.45 0 0 0 .15-.37ZM173.74 183.12l1.19-2.51a.76.76 0 0 0 0-.78c-.14-.13-.37 0-.51.29l-1.18 2.51-1.19-1.14c-.14-.13-.36 0-.5.29a.76.76 0 0 0 0 .78l1.18 1.14-1.18 2.51a.76.76 0 0 0 0 .78.2.2 0 0 0 .25 0 .74.74 0 0 0 .25-.31l1.19-2.51 1.18 1.14a.2.2 0 0 0 .25 0 .68.68 0 0 0 .26-.31.76.76 0 0 0 0-.78Z" style="fill:#455a64;opacity:.5"/><path d="M143.13 213.26v-4.19a4.59 4.59 0 0 1 2.07-3.59l185.42-107c1.14-.66 2.07-.13 2.07 1.19v4.19a4.57 4.57 0 0 1-2.07 3.58l-185.42 107c-1.14.67-2.07.14-2.07-1.18Z" style="fill:#fafafa"/><path d="M327.8 107.78a.41.41 0 0 1-.19 0 .57.57 0 0 1-.32-.64l.2-1.69-.79-.57a.56.56 0 0 1-.22-.47.93.93 0 0 1 .34-.74l1.22-.94v-.08l.54-1.79a.77.77 0 0 1 .63-.59.49.49 0 0 1 .49.3l.45 1 1-.39a.5.5 0 0 1 .57.13.76.76 0 0 1 0 .85l-.88 1.65.18 1.59a1 1 0 0 1-.26.76.62.62 0 0 1-.5.19l-1-.12-1.07 1.36a.64.64 0 0 1-.39.19Zm-.56-3.48.78.57a.59.59 0 0 1 .22.58l-.13 1.08.69-.87a.62.62 0 0 1 .56-.27l1 .12a.19.19 0 0 0 0-.09l-.21-1.49a1 1 0 0 1 .11-.55L331 102l-.75.28a.5.5 0 0 1-.65-.26l-.34-.72-.48 1.54a.89.89 0 0 1-.3.47l-1.22.93a.59.59 0 0 0-.02.06Z" style="fill:#e6e6e6"/><g style="opacity:.5"><path d="M335.35 98.07a.67.67 0 0 1-.36-1.25l5.41-3.24a.67.67 0 0 1 .69 1.15L335.68 98a.58.58 0 0 1-.33.07ZM335.31 101.18a.67.67 0 0 1-.34-1.25l5.47-3.16a.66.66 0 0 1 .91.25.67.67 0 0 1-.24.92l-5.46 3.15a.72.72 0 0 1-.34.09ZM335.31 104.34a.68.68 0 0 1-.58-.34.67.67 0 0 1 .24-.92l5.47-3.15a.66.66 0 0 1 .91.24.67.67 0 0 1-.24.92l-5.46 3.16a.72.72 0 0 1-.34.09Z" style="fill:#455a64"/></g><path style="fill:#e6e6e6" d="m115.95 220.13-4.06-2.35v13.03l4.06 2.34v-13.02z"/><path d="M336.63 117.37a1.59 1.59 0 0 0-1.44.2L128.29 237a4.78 4.78 0 0 0-2.16 3.75v9.07a1.56 1.56 0 0 0 .59 1.38c-.37-.24-3.64-2.09-4-2.33a1.54 1.54 0 0 1-.62-1.39v-9.07a4.78 4.78 0 0 1 2.17-3.75l206.85-119.44a1.56 1.56 0 0 1 1.55-.15c.33.22 3.19 1.83 3.96 2.3Z" style="fill:#ba68c8"/><path d="m128.3 237 206.89-119.43c1.2-.7 2.17-.14 2.17 1.25v9.07a4.78 4.78 0 0 1-2.17 3.75L128.3 251.09c-1.2.69-2.17.13-2.17-1.25v-9.07a4.78 4.78 0 0 1 2.17-3.77Z" style="fill:#ba68c8"/><path d="m126.77 238.63-4.07-2.34a4.45 4.45 0 0 0-.64 2.14v9.07a1.54 1.54 0 0 0 .62 1.39c.4.24 3.67 2.09 4 2.33a1.56 1.56 0 0 1-.59-1.38v-9.07a4.48 4.48 0 0 1 .68-2.14Z" style="opacity:.15"/><path d="M336.63 117.37c-.77-.47-3.61-2.08-4-2.3a1.56 1.56 0 0 0-1.55.15L124.23 234.68a4.4 4.4 0 0 0-1.53 1.61l4.07 2.34a4.38 4.38 0 0 1 1.52-1.61l206.9-119.45a1.59 1.59 0 0 1 1.44-.2Z" style="fill:#fff;opacity:.4"/><path d="M329.23 128a4.65 4.65 0 0 1-2.16 3.6L274.53 162c-1.2.69-2.17.2-2.17-1.1a4.64 4.64 0 0 1 2.17-3.59L327.07 127c1.19-.74 2.16-.25 2.16 1Z" style="fill:#fafafa"/><path d="m237.81 200.3 95.84-55.3c.91-.52 1.65-.15 1.65.84a3.56 3.56 0 0 1-1.65 2.74l-95.84 55.34c-.91.53-1.65.16-1.65-.83a3.54 3.54 0 0 1 1.65-2.79ZM237.81 207.45l95.84-55.35c.91-.52 1.65-.15 1.65.84a3.54 3.54 0 0 1-1.65 2.74L237.81 211c-.91.53-1.65.16-1.65-.83a3.54 3.54 0 0 1 1.65-2.72ZM237.81 214.6l95.84-55.35c.91-.52 1.65-.15 1.65.84a3.54 3.54 0 0 1-1.65 2.74l-95.84 55.35c-.91.52-1.65.15-1.65-.84a3.54 3.54 0 0 1 1.65-2.74Z" style="fill:#455a64"/><path d="m124.23 260 93.16-53.79c1.19-.69 2.16-.13 2.16 1.25v84.14a4.8 4.8 0 0 1-2.16 3.75l-93.16 53.8c-1.2.69-2.17.13-2.17-1.25v-84.12a4.78 4.78 0 0 1 2.17-3.78Z" style="fill:#e6e6e6;opacity:.7000000000000001"/><path d="M165.46 273.84a5.4 5.4 0 0 0-.63-1 4.89 4.89 0 0 0-.37-.41 4.18 4.18 0 0 0-1.16-.85 3.89 3.89 0 0 0-.66-.29 5.5 5.5 0 0 0-2-.26 6.1 6.1 0 0 0-.72.08l-.52.1-.51.13c-.19.06-.38.12-.58.2l-.51.2a5.46 5.46 0 0 1 0 .58v.76c0 6.17-4.34 13.68-9.68 16.77a11.1 11.1 0 0 1-1.18.61 4 4 0 0 0 .07.5 1.55 1.55 0 0 0 0 .21 5.23 5.23 0 0 0 .12.54 2.75 2.75 0 0 0 .14.49 4 4 0 0 0 .18.52 4.08 4.08 0 0 0 .19.42 5.24 5.24 0 0 0 .67 1.07 4.91 4.91 0 0 0 .75.76l.08.06.35.25h.07a3.75 3.75 0 0 0 .44.24l.5.2a6.07 6.07 0 0 0 3.74-.06 11.68 11.68 0 0 0 1.11-.41c.38-.17.76-.37 1.15-.59 5.35-3.09 9.69-10.59 9.69-16.77a9.07 9.07 0 0 0-.73-4.05Z" style="fill:#ba68c8"/><path d="m172.21 263-1 2a1.39 1.39 0 0 0 .08 1.24 11.4 11.4 0 0 1 1.13 2.52.61.61 0 0 0 .85.4l5.1-2.3a.54.54 0 0 1 .41 0Zm-6.31-10.75-3.7-2.14a.74.74 0 0 0-.26 0 2 2 0 0 0-.24 0 .23.23 0 0 0-.14 0 1.12 1.12 0 0 0-.24.19s-.1 0-.13.09l-3 4.53-3.81-2.2h-.08l-2.76-1.59a.35.35 0 0 0-.14 0 .55.55 0 0 0-.29.08l-3.94 2.28-.45.26-1.24.71h-.08a1.24 1.24 0 0 0-.22.18 1.82 1.82 0 0 0-.36.54 1.1 1.1 0 0 0-.1.34l-.58 6.38a.36.36 0 0 1 0 .1 1.07 1.07 0 0 1-.09.34 2.11 2.11 0 0 1-.48.75 34.07 34.07 0 0 0-3.19 3.37 1.17 1.17 0 0 1-1.13.32l-3.67-1.29a.82.82 0 0 0-.27 0h-.37l-.15.08a.34.34 0 0 0-.12.09.51.51 0 0 0-.13.16l-1.73 3-1.83 3.17-.65 1.13a.83.83 0 0 0-.1.56.83.83 0 0 0 .27.51l3 2.55a1.07 1.07 0 0 1 .14.16 1.13 1.13 0 0 1 .2.59 1.21 1.21 0 0 1-.06.38 34 34 0 0 0-1.32 4.44 2 2 0 0 1-.35.71 1.92 1.92 0 0 1-.39.41l-5.23 3.68a1.07 1.07 0 0 0-.19.18 2.71 2.71 0 0 0-.17.25 1.45 1.45 0 0 0-.23.7v6.62a.47.47 0 0 0 .2.42l6.64 3.84-2.42 4.88a.76.76 0 0 0 .3 1l9 5.23h.12l-.11-.06-.6-.35a.78.78 0 0 1-.31-1l3.41-6.86a.77.77 0 0 0 .08-.27 1.48 1.48 0 0 0-.16-1 11.71 11.71 0 0 1-1.14-2.53.61.61 0 0 0-.85-.4l-2.57 1.16-2.53 1.14a.45.45 0 0 1-.45 0 .46.46 0 0 1-.19-.42v-6.62a1.37 1.37 0 0 1 .22-.7 1.24 1.24 0 0 1 .36-.42l5.24-3.69a1.83 1.83 0 0 0 .38-.4 2 2 0 0 0 .35-.71 33.56 33.56 0 0 1 1.33-4.44 1.15 1.15 0 0 0 .06-.37 1.07 1.07 0 0 0-.35-.76l-2.95-2.54a.95.95 0 0 1-.19-1.09l1.2-2.08 1.49-2.58 1.53-2.64a.82.82 0 0 1 .65-.4.66.66 0 0 1 .37 0l3.68 1.28a1 1 0 0 0 .66 0 1 1 0 0 0 .47-.31 35.2 35.2 0 0 1 3.18-3.37 2.06 2.06 0 0 0 .48-.74 1.68 1.68 0 0 0 .12-.45l.57-6.38a.88.88 0 0 1 .1-.34 1.44 1.44 0 0 1 .59-.73l1.08-.62 2.31-1.34 2.25-1.2a.49.49 0 0 1 .43-.05.45.45 0 0 1 .23.39l.29 2.92.27 2.65a.61.61 0 0 0 .76.54 10.74 10.74 0 0 1 2.76-.28 1.41 1.41 0 0 0 .8-.26 1.27 1.27 0 0 0 .31-.3l4.24-6.37a.64.64 0 0 1 .13-.15.77.77 0 0 1 .67-.17.44.44 0 0 1 .16.06ZM153.2 311a.35.35 0 0 1-.08-.13.59.59 0 0 1-.05-.19l-.55-5.56a.6.6 0 0 0-.77-.54 11.65 11.65 0 0 1-2.76.28 1.42 1.42 0 0 0-1.11.55l-1.22 1.83 6.55 3.78s0-.02-.01-.02Z" style="fill:#ba68c8"/><path d="M170.58 255a.44.44 0 0 0-.16-.06.77.77 0 0 0-.67.17.64.64 0 0 0-.13.15l-4.24 6.37a1.27 1.27 0 0 1-.31.3 1.41 1.41 0 0 1-.8.26 10.74 10.74 0 0 0-2.76.28.61.61 0 0 1-.76-.54l-.27-2.65-.29-2.92a.45.45 0 0 0-.19-.36.49.49 0 0 0-.43.05l-2.34 1.35-2.31 1.34-1.08.62a1.44 1.44 0 0 0-.59.73.88.88 0 0 0-.1.34l-.57 6.38a1.68 1.68 0 0 1-.12.45 2.06 2.06 0 0 1-.48.74 35.2 35.2 0 0 0-3.18 3.37 1 1 0 0 1-.47.31 1 1 0 0 1-.66 0l-3.68-1.28a.66.66 0 0 0-.37 0 .82.82 0 0 0-.65.4l-1.53 2.64-1.57 2.56-1.2 2.08a.95.95 0 0 0 .19 1.09l2.95 2.54a1.07 1.07 0 0 1 .35.76 1.15 1.15 0 0 1-.06.37 33.56 33.56 0 0 0-1.33 4.44 2 2 0 0 1-.35.71 1.83 1.83 0 0 1-.38.4l-5.24 3.69a1.24 1.24 0 0 0-.36.42 1.37 1.37 0 0 0-.22.7v6.62a.46.46 0 0 0 .19.42.45.45 0 0 0 .45 0l2.53-1.14 2.57-1.16a.61.61 0 0 1 .85.4 11.71 11.71 0 0 0 1.14 2.53 1.48 1.48 0 0 1 .16 1 .77.77 0 0 1-.08.27l-3.41 6.86a.78.78 0 0 0 .31 1l.6.35.11.06h-.12l-9-5.23a.76.76 0 0 1-.3-1l2.42-4.88-6.64-3.95a.47.47 0 0 1-.2-.42v-6.62a1.45 1.45 0 0 1 .23-.7 2.71 2.71 0 0 1 .17-.25 1.07 1.07 0 0 1 .19-.18l5.23-3.68a1.92 1.92 0 0 0 .39-.41 2 2 0 0 0 .35-.71 34 34 0 0 1 1.32-4.44 1.21 1.21 0 0 0 .06-.38 1.13 1.13 0 0 0-.2-.59 1.07 1.07 0 0 0-.14-.16l-3-2.55a.83.83 0 0 1-.27-.51.83.83 0 0 1 .1-.56l.65-1.13 1.83-3.17.5-.87 1.27-2.2a.77.77 0 0 1 .93-.34h.06l3.37 1.19.29.1a1.17 1.17 0 0 0 1.13-.32 34.07 34.07 0 0 1 3.19-3.37 2.11 2.11 0 0 0 .48-.75 1.07 1.07 0 0 0 .09-.34.36.36 0 0 0 0-.1l.58-6.38a1.1 1.1 0 0 1 .1-.34 1.82 1.82 0 0 1 .36-.54 1.33 1.33 0 0 1 .3-.23l1.24-.71.45-.26 3.94-2.28a.55.55 0 0 1 .29-.08.35.35 0 0 1 .14 0l2.76 1.59h.08l3.81 2.2 3-4.53c0-.05.09-.05.13-.09a1.12 1.12 0 0 1 .24-.19.23.23 0 0 1 .14 0 2 2 0 0 1 .24 0 .74.74 0 0 1 .26 0l3.7 2.14ZM153.12 310.91a.59.59 0 0 1-.05-.19l-.55-5.56a.6.6 0 0 0-.77-.54 11.65 11.65 0 0 1-2.76.28 1.42 1.42 0 0 0-1.11.55l-1.22 1.83 6.55 3.78a.35.35 0 0 1-.09-.15ZM172.21 263l-1 2a1.39 1.39 0 0 0 .08 1.24 11.4 11.4 0 0 1 1.13 2.52.61.61 0 0 0 .85.4l5.1-2.3a.54.54 0 0 1 .41 0Z" style="opacity:.55"/><path d="M153.18 260a.88.88 0 0 0-.1.34l-.57 6.38a1.68 1.68 0 0 1-.12.45l-8.39-4.83a2.55 2.55 0 0 0 .11-.33.36.36 0 0 0 0-.1l.58-6.38a1.12 1.12 0 0 1 .11-.34ZM142.16 282.43l-8.43-4.87a1.18 1.18 0 0 0-.16-.57 1.07 1.07 0 0 0-.14-.16l-3-2.55a.83.83 0 0 1-.27-.51l8.43 4.87a.83.83 0 0 0 .27.51l2.95 2.54a1.07 1.07 0 0 1 .35.74ZM138.63 308.93a.78.78 0 0 0 .31 1l.6.35-9-5.23a.76.76 0 0 1-.3-1l2.42-4.88 1.78 1a.45.45 0 0 0 .45 0l2.53-1.14 4.72 2.73a.77.77 0 0 1-.08.27ZM153.2 311l-6.55-3.78 1.22-1.83a1.42 1.42 0 0 1 1.11-.55 11.65 11.65 0 0 0 2.76-.28.6.6 0 0 1 .77.54l.55 5.56a.59.59 0 0 0 .05.19.35.35 0 0 0 .09.15Z" style="opacity:.15"/><path d="M166.32 278c0 6.18-4.34 13.68-9.69 16.77-.39.22-.77.42-1.15.59a11.68 11.68 0 0 1-1.11.41 6.07 6.07 0 0 1-3.74.06l-.5-.2a3.75 3.75 0 0 1-.44-.24h-.07l-.35-.25-.08-.06a4.91 4.91 0 0 1-.75-.76 5.24 5.24 0 0 1-.67-1.07 4.08 4.08 0 0 1-.19-.42 4 4 0 0 1-.18-.52 2.75 2.75 0 0 1-.14-.49 5.23 5.23 0 0 1-.12-.54 1.55 1.55 0 0 1 0-.21 4 4 0 0 1-.07-.5 11.1 11.1 0 0 0 1.18-.61c5.34-3.09 9.68-10.6 9.68-16.77v-.76a5.44 5.44 0 0 0-.05-.58l.51-.2c.2-.08.39-.14.58-.2l.51-.13.52-.1a6.1 6.1 0 0 1 .72-.08 5.5 5.5 0 0 1 2 .26 3.89 3.89 0 0 1 .66.29 4.18 4.18 0 0 1 1.16.85 4.89 4.89 0 0 1 .37.41 5.4 5.4 0 0 1 .63 1 9.07 9.07 0 0 1 .78 4.05Z" style="opacity:.65"/><path d="M178.8 266.84a.54.54 0 0 0-.41 0l-5.1 2.3a.61.61 0 0 1-.85-.4 11.4 11.4 0 0 0-1.13-2.52 1.39 1.39 0 0 1-.08-1.24l1-2ZM170.58 255a.44.44 0 0 0-.16-.06.77.77 0 0 0-.67.17.93.93 0 0 0-.13.15l-4.24 6.37a1.27 1.27 0 0 1-.31.3l-2.37-1.37-2.22-1.28-.29-2.92a.45.45 0 0 0-.19-.36l-1.75-1 3-4.53a.68.68 0 0 1 .37-.28.23.23 0 0 1 .14 0 .67.67 0 0 1 .5.07l3.7 2.14ZM140.42 288a1.83 1.83 0 0 1-.38.4l-5.24 3.69a1.24 1.24 0 0 0-.36.42l-8.44-4.9.17-.25a1.07 1.07 0 0 1 .19-.18l5.23-3.68a1.92 1.92 0 0 0 .39-.41Z" style="opacity:.15"/><path d="M160 256Z" style="fill:#ba68c8"/><path d="M160 256Z" style="opacity:.35000000000000003"/><path d="M179.05 273.91v-6.62a.43.43 0 0 0-.65-.42l-5.1 2.3a.61.61 0 0 1-.85-.39 11.5 11.5 0 0 0-1.14-2.53 1.42 1.42 0 0 1-.08-1.24l3.4-6.86a.76.76 0 0 0-.3-1l-3.69-2.15a.76.76 0 0 0-1 .23l-4.24 6.38a1.42 1.42 0 0 1-1.11.55 11.65 11.65 0 0 0-2.76.28.61.61 0 0 1-.77-.54l-.56-5.57a.43.43 0 0 0-.69-.35l-5.73 3.31a1.5 1.5 0 0 0-.68 1.07l-.58 6.37a2 2 0 0 1-.59 1.19 34.26 34.26 0 0 0-3.19 3.38 1.09 1.09 0 0 1-1.12.31l-3.68-1.28a.91.91 0 0 0-1 .38l-4.21 7.3a.9.9 0 0 0 .18 1.09l3 2.54a1.1 1.1 0 0 1 .28 1.14 35.07 35.07 0 0 0-1.32 4.44 2.07 2.07 0 0 1-.74 1.11l-5.23 3.69a1.53 1.53 0 0 0-.59 1.13v6.61a.43.43 0 0 0 .65.43l5.11-2.3a.6.6 0 0 1 .85.39 11 11 0 0 0 1.13 2.53 1.39 1.39 0 0 1 .08 1.24l-3.4 6.85a.77.77 0 0 0 .3 1l3.69 2.13a.78.78 0 0 0 1-.24l4.24-6.37a1.39 1.39 0 0 1 1.11-.55 11.62 11.62 0 0 0 2.75-.28.61.61 0 0 1 .77.54l.56 5.57a.43.43 0 0 0 .69.35l5.73-3.31a1.59 1.59 0 0 0 .69-1.07l.57-6.38a2.19 2.19 0 0 1 .6-1.19 34 34 0 0 0 3.18-3.37 1.11 1.11 0 0 1 1.13-.32l3.68 1.29a.89.89 0 0 0 1-.39l4.21-7.3a.88.88 0 0 0-.18-1.08l-2.95-2.55a1.08 1.08 0 0 1-.29-1.13 35.63 35.63 0 0 0 1.33-4.44 2.06 2.06 0 0 1 .73-1.11l5.24-3.69a1.55 1.55 0 0 0 .54-1.1Zm-22.41 20.82c-5.35 3.08-9.69.58-9.69-5.6s4.34-13.68 9.69-16.77 9.68-.58 9.68 5.59-4.32 13.69-9.68 16.78Z" style="fill:#ba68c8"/><path d="M179.05 273.91v-6.62a.43.43 0 0 0-.65-.42l-5.1 2.3a.61.61 0 0 1-.85-.39 11.5 11.5 0 0 0-1.14-2.53 1.42 1.42 0 0 1-.08-1.24l3.4-6.86a.76.76 0 0 0-.3-1l-3.69-2.15a.76.76 0 0 0-1 .23l-4.24 6.38a1.42 1.42 0 0 1-1.11.55 11.65 11.65 0 0 0-2.76.28.61.61 0 0 1-.77-.54l-.56-5.57a.43.43 0 0 0-.69-.35l-5.73 3.31a1.5 1.5 0 0 0-.68 1.07l-.58 6.37a2 2 0 0 1-.59 1.19 34.26 34.26 0 0 0-3.19 3.38 1.09 1.09 0 0 1-1.12.31l-3.68-1.28a.91.91 0 0 0-1 .38l-4.21 7.3a.9.9 0 0 0 .18 1.09l3 2.54a1.1 1.1 0 0 1 .28 1.14 35.07 35.07 0 0 0-1.32 4.44 2.07 2.07 0 0 1-.74 1.11l-5.23 3.69a1.53 1.53 0 0 0-.59 1.13v6.61a.43.43 0 0 0 .65.43l5.11-2.3a.6.6 0 0 1 .85.39 11 11 0 0 0 1.13 2.53 1.39 1.39 0 0 1 .08 1.24l-3.4 6.85a.77.77 0 0 0 .3 1l3.69 2.13a.78.78 0 0 0 1-.24l4.24-6.37a1.39 1.39 0 0 1 1.11-.55 11.62 11.62 0 0 0 2.75-.28.61.61 0 0 1 .77.54l.56 5.57a.43.43 0 0 0 .69.35l5.73-3.31a1.59 1.59 0 0 0 .69-1.07l.57-6.38a2.19 2.19 0 0 1 .6-1.19 34 34 0 0 0 3.18-3.37 1.11 1.11 0 0 1 1.13-.32l3.68 1.29a.89.89 0 0 0 1-.39l4.21-7.3a.88.88 0 0 0-.18-1.08l-2.95-2.55a1.08 1.08 0 0 1-.29-1.13 35.63 35.63 0 0 0 1.33-4.44 2.06 2.06 0 0 1 .73-1.11l5.24-3.69a1.55 1.55 0 0 0 .54-1.1Zm-22.41 20.82c-5.35 3.08-9.69.58-9.69-5.6s4.34-13.68 9.69-16.77 9.68-.58 9.68 5.59-4.32 13.69-9.68 16.78Z" style="opacity:.45"/><path d="m137.09 266.59-2-1.16a.8.8 0 0 0-.62.38l-1.26 2.2-.51.87-1.83 3.17-.65 1.13a.83.83 0 0 0-.1.56l8.43 4.87a.83.83 0 0 1 .08-.58l1.2-2.08 1.49-2.58 1.53-2.64a.82.82 0 0 1 .65-.4Z" style="fill:#ba68c8"/><path d="m137.09 266.59-2-1.16a.8.8 0 0 0-.62.38l-1.26 2.2-.51.87-1.83 3.17-.65 1.13a.83.83 0 0 0-.1.56l8.43 4.87a.83.83 0 0 1 .08-.58l1.2-2.08 1.49-2.58 1.53-2.64a.82.82 0 0 1 .65-.4Z" style="opacity:.35000000000000003"/><path d="M139.82 266.76a1 1 0 0 1-.65 0l-.28-.1-3.38-1.19h-.07a.83.83 0 0 0-.31 0l.11.07 1.86 1.09.64.36 5.81 3.39a.66.66 0 0 1 .37 0l3.68 1.28a1 1 0 0 0 .66 0Z" style="opacity:.15"/><path d="M159.93 256a.49.49 0 0 0-.43.05l-2.34 1.35-2.31 1.34-1.08.62a1.44 1.44 0 0 0-.59.73l-8.42-4.86a1.82 1.82 0 0 1 .36-.54 1.24 1.24 0 0 1 .22-.18h.08l1.24-.71.45-.26 3.94-2.28a.55.55 0 0 1 .29-.08.35.35 0 0 1 .14 0l2.76 1.59h.08l3.81 2.2Z" style="fill:#ba68c8"/><path d="M159.93 256a.49.49 0 0 0-.43.05l-2.34 1.35-2.31 1.34-1.08.62a1.44 1.44 0 0 0-.59.73l-8.42-4.86a1.82 1.82 0 0 1 .36-.54 1.24 1.24 0 0 1 .22-.18h.08l1.24-.71.45-.26 3.94-2.28a.55.55 0 0 1 .29-.08.35.35 0 0 1 .14 0l2.76 1.59h.08l3.81 2.2Z" style="opacity:.35000000000000003"/><path d="M203.32 278.16a3.14 3.14 0 0 0-2.46-2h-.37a4.78 4.78 0 0 0-2.22.47v.85A13.87 13.87 0 0 1 192 288.4a7.59 7.59 0 0 1-.74.39 5 5 0 0 0 .43 1.64 3.15 3.15 0 0 0 3 2h.62l.28-.05H195.88a8.9 8.9 0 0 0 4.08-2.64c3.17-3.51 4.69-8.64 3.36-11.58Z" style="fill:#ba68c8"/><path d="M199.92 289.62a8.9 8.9 0 0 1-4.08 2.64H195.55l-.28.05h-.62a3.15 3.15 0 0 1-3-2 5 5 0 0 1-.43-1.64 7.59 7.59 0 0 0 .74-.39 13.87 13.87 0 0 0 6.29-10.9v-.85a4.78 4.78 0 0 1 2.22-.47h.37a3.14 3.14 0 0 1 2.46 2c1.35 3.04-.17 8.17-3.38 11.56Z" style="opacity:.65"/><path d="m200.79 298.51-1.61-2.45c-.11-.17-.41-.16-.67 0s-.63.42-.94.6l3.25 1.88ZM208.26 278.17q0 .61-.06 1.26a.44.44 0 0 0 .45.44l2.69.15a.42.42 0 0 1 .2.05ZM190.6 297.8a5.4 5.4 0 0 1-1.37-.8.56.56 0 0 0-.7.12l-3.2 2.93a.58.58 0 0 1-.35.16l3.14 1.81 1.94 1.13a.29.29 0 0 1-.13-.31l1-4.48a.5.5 0 0 0-.33-.56ZM184.54 300h.06l.19.11h.05s-.06-.05-.07-.09l-1.43-3.15a.61.61 0 0 1 0-.38 1 1 0 0 1 .18-.37l3-3.63a1.41 1.41 0 0 0 .27-.55.74.74 0 0 0 0-.25 15 15 0 0 1 0-2.59.43.43 0 0 0-.45-.43l-2.69-.16a.35.35 0 0 1-.37-.45l1.48-5a1 1 0 0 1 .67-.56l2.94-.71a1.27 1.27 0 0 0 .75-.55 27.9 27.9 0 0 1 1.58-2.75 1.13 1.13 0 0 0 .11-.22.58.58 0 0 0 0-.14v-.14a.64.64 0 0 0 0-.28l-1-3.24a.62.62 0 0 1 0-.37.72.72 0 0 1 .09-.2 1.33 1.33 0 0 1 .14-.19l3.44-3.63a.42.42 0 0 1 .46-.16.2.2 0 0 1 .09.07l1.6 2.45c.11.17.41.16.67 0a14.4 14.4 0 0 1 1.94-1.12 1.53 1.53 0 0 0 .69-.66l1.69-4.56a.37.37 0 0 1 .07-.12.92.92 0 0 1 .43-.31h.19l3.13-.32h.19a.21.21 0 0 1 .11 0 .25.25 0 0 1 .13.31l-1 4.49a.51.51 0 0 0 .32.56 5.09 5.09 0 0 1 1.37.79.56.56 0 0 0 .7-.12l3.2-2.92c.17-.15.34-.2.46-.14l-6.31-3.66h-.12l-1.14-.66-1.25-.72-.5-.29-1.13-.66-.18-.11-.88-.5a.48.48 0 0 0-.31-.06l-3.13.31a.35.35 0 0 0-.14 0l-.14.05-.14.08-.1.09a.57.57 0 0 0-.16.23l-1.7 4.55a.3.3 0 0 1-.06.11.83.83 0 0 1-.12.16l-.16.16-.14.1-.18.11c-.33.15-.65.33-1 .52l-3.29-1.9h-.05a.3.3 0 0 0-.27 0 .46.46 0 0 0-.19.13l-2.44 2.57-1 1.06a1 1 0 0 0-.15.2 1.6 1.6 0 0 0-.1.23.61.61 0 0 0 0 .26v.06l1 3.24a.91.91 0 0 1 0 .29.44.44 0 0 1 0 .1v.05a1.09 1.09 0 0 1-.14.31 27.75 27.75 0 0 0-1.58 2.74 1.22 1.22 0 0 1-.74.56l-3 .71a.94.94 0 0 0-.66.55l-1.49 5a.33.33 0 0 0 .12.36l2.27 1.32 1.06.61c0 .46 0 .91.06 1.34a.75.75 0 0 1 0 .2 1 1 0 0 1-.07.23 2.46 2.46 0 0 1-.19.32l-3 3.64a1 1 0 0 0-.18.37.75.75 0 0 0 0 .2.47.47 0 0 0 0 .17l1.43 3.15a.24.24 0 0 0 .09.11l.9.52c.13.07.28.15.43.25l3.83 2.21.42.24.23.14" style="fill:#ba68c8"/><path d="M184.54 300h.06l.19.11h.05s-.06-.05-.07-.09l-1.43-3.15a.61.61 0 0 1 0-.38 1 1 0 0 1 .18-.37l3-3.63a1.41 1.41 0 0 0 .27-.55.74.74 0 0 0 0-.25 15 15 0 0 1 0-2.59.43.43 0 0 0-.45-.43l-2.69-.16a.35.35 0 0 1-.37-.45l1.48-5a1 1 0 0 1 .67-.56l2.94-.71a1.27 1.27 0 0 0 .75-.55 27.9 27.9 0 0 1 1.58-2.75 1.13 1.13 0 0 0 .11-.22.58.58 0 0 0 0-.14v-.14a.64.64 0 0 0 0-.28l-1-3.24a.62.62 0 0 1 0-.37.72.72 0 0 1 .09-.2 1.33 1.33 0 0 1 .14-.19l3.44-3.63a.42.42 0 0 1 .46-.16.2.2 0 0 1 .09.07l1.6 2.45c.11.17.41.16.67 0a14.4 14.4 0 0 1 1.94-1.12 1.53 1.53 0 0 0 .69-.66l1.69-4.56a.37.37 0 0 1 .07-.12.92.92 0 0 1 .43-.31h.19l3.13-.32h.19a.21.21 0 0 1 .11 0 .25.25 0 0 1 .13.31l-1 4.49a.51.51 0 0 0 .32.56 5.09 5.09 0 0 1 1.37.79.56.56 0 0 0 .7-.12l3.2-2.92c.17-.15.34-.2.46-.14l-6.31-3.66h-.12l-1.14-.66-1.25-.72-.5-.29-1.13-.66-.18-.11-.88-.5a.48.48 0 0 0-.31-.06l-3.13.31a.35.35 0 0 0-.14 0l-.14.05-.14.08-.1.09a.57.57 0 0 0-.16.23l-1.7 4.55a.3.3 0 0 1-.06.11.83.83 0 0 1-.12.16l-.16.16-.14.1-.18.11c-.33.15-.65.33-1 .52l-3.29-1.9h-.05a.3.3 0 0 0-.27 0 .46.46 0 0 0-.19.13l-2.44 2.57-1 1.06a1 1 0 0 0-.15.2 1.6 1.6 0 0 0-.1.23.61.61 0 0 0 0 .26v.06l1 3.24a.91.91 0 0 1 0 .29.44.44 0 0 1 0 .1v.05a1.09 1.09 0 0 1-.14.31 27.75 27.75 0 0 0-1.58 2.74 1.22 1.22 0 0 1-.74.56l-3 .71a.94.94 0 0 0-.66.55l-1.49 5a.33.33 0 0 0 .12.36l2.27 1.32 1.06.61c0 .46 0 .91.06 1.34a.75.75 0 0 1 0 .2 1 1 0 0 1-.07.23 2.46 2.46 0 0 1-.19.32l-3 3.64a1 1 0 0 0-.18.37.75.75 0 0 0 0 .2.47.47 0 0 0 0 .17l1.43 3.15a.24.24 0 0 0 .09.11l.9.52c.13.07.28.15.43.25l3.83 2.21.42.24.23.14" style="opacity:.55"/><path d="m200.79 298.51-1.61-2.45c-.11-.17-.41-.16-.67 0s-.63.42-.94.6l3.25 1.88Z" style="opacity:.65"/><path d="M208.26 278.17q0 .61-.06 1.26a.44.44 0 0 0 .45.44l2.69.15a.42.42 0 0 1 .2.05Z" style="opacity:.55"/><path d="M190.6 297.8a5.4 5.4 0 0 1-1.37-.8.56.56 0 0 0-.7.12l-3.2 2.93a.58.58 0 0 1-.35.16l3.14 1.81 1.94 1.13a.29.29 0 0 1-.13-.31l1-4.48a.5.5 0 0 0-.33-.56Z" style="opacity:.65"/><path d="M186.72 292.21a1.45 1.45 0 0 1-.2.34l-3 3.63a1 1 0 0 0-.18.37l-6.34-3.66a1 1 0 0 1 .18-.37l3-3.64a2.46 2.46 0 0 0 .19-.32Z" style="opacity:.2"/><path d="M186.81 291.75a.92.92 0 0 1-.09.46l-6.33-3.65a1 1 0 0 0 .07-.23.75.75 0 0 0 0-.2c0-.43-.06-.87-.06-1.33l3 1.71a.47.47 0 0 0 .28.1l2.69.16a.43.43 0 0 1 .45.43 15 15 0 0 0-.01 2.55Z" style="opacity:.05"/><path d="M188.8 281.68a1.05 1.05 0 0 1-.4.19l-2.94.71a1.06 1.06 0 0 0-.54.35l-6.34-3.65a1 1 0 0 1 .33-.28l.22-.08 3-.71a1.2 1.2 0 0 0 .38-.18Z" style="opacity:.1"/><path d="M183.31 288.12a.34.34 0 0 0 .09.35l-3-1.71-3.26-1.89h-.05a.32.32 0 0 1-.12-.36l1.49-5a.58.58 0 0 1 .1-.19l6.35 3.65a.6.6 0 0 0-.13.21Z" style="opacity:.35000000000000003"/><path d="m183.65 270.56 6.33 3.63a.57.57 0 0 0 0 .36l1 3.24a.87.87 0 0 1 0 .42l-6.33-3.66v-.1a.91.91 0 0 0 0-.29l-1-3.24a.51.51 0 0 1 0-.32M201 265.94a.6.6 0 0 0-.17.23l-1.69 4.56a1.07 1.07 0 0 1-.34.42l-6.33-3.66a1.17 1.17 0 0 0 .28-.32.3.3 0 0 0 .06-.11l1.7-4.55a.57.57 0 0 1 .16-.23Z" style="opacity:.1"/><path d="M183.31 288.12a.34.34 0 0 0 .09.35l-3-1.71-3.26-1.89h-.05a.32.32 0 0 1-.12-.36l1.49-5a.58.58 0 0 1 .1-.19l6.35 3.65a.6.6 0 0 0-.13.21Z" style="fill:#ba68c8"/><path d="M183.31 288.12a.34.34 0 0 0 .09.35l-3-1.71-3.26-1.89h-.05a.32.32 0 0 1-.12-.36l1.49-5a.58.58 0 0 1 .1-.19l6.35 3.65a.6.6 0 0 0-.13.21ZM178.58 279.28Z" style="opacity:.35000000000000003"/><path d="M194.16 270a.42.42 0 0 0-.49.15l-3.44 3.63a1.25 1.25 0 0 0-.24.4l-6.33-3.63a1.09 1.09 0 0 1 .09-.23 1 1 0 0 1 .15-.2l3.44-3.63a.77.77 0 0 1 .19-.14.3.3 0 0 1 .27 0h.05l3.29 1.9Z" style="fill:#ba68c8"/><path d="M194.16 270a.42.42 0 0 0-.49.15l-3.44 3.63a1.25 1.25 0 0 0-.24.4l-6.33-3.63a1.09 1.09 0 0 1 .09-.23 1 1 0 0 1 .15-.2l3.44-3.63a.77.77 0 0 1 .19-.14.3.3 0 0 1 .27 0h.05l3.29 1.9Z" style="opacity:.35000000000000003"/><path d="M204.93 265.43a.5.5 0 0 0-.28-.05l-3.13.32a.87.87 0 0 0-.52.24l-6.33-3.66.1-.09.14-.08.14-.05a.58.58 0 0 1 .14 0l3.13-.31a.48.48 0 0 1 .31.06Z" style="fill:#ba68c8"/><path d="M204.93 265.43a.5.5 0 0 0-.28-.05l-3.13.32a.87.87 0 0 0-.52.24l-6.33-3.66.1-.09.14-.08.14-.05a.58.58 0 0 1 .14 0l3.13-.31a.48.48 0 0 1 .31.06ZM180.25 286.65l.18.1Z" style="opacity:.35000000000000003"/><path d="M211.54 280.07a.42.42 0 0 0-.2-.05l-2.69-.15a.44.44 0 0 1-.45-.44q.06-.65.06-1.26a11.65 11.65 0 0 0 0-1.33 1.23 1.23 0 0 1 .29-.79l3-3.64a.78.78 0 0 0 .18-.74l-1.42-3.15a.18.18 0 0 0-.09-.1c-.12-.06-.29 0-.46.14l-3.2 2.92a.56.56 0 0 1-.7.12 5.09 5.09 0 0 0-1.37-.79.51.51 0 0 1-.32-.56l1-4.49a.25.25 0 0 0-.13-.31.48.48 0 0 0-.3-.06l-3.13.32a.86.86 0 0 0-.69.47l-1.69 4.56a1.53 1.53 0 0 1-.69.66 14.4 14.4 0 0 0-1.94 1.12c-.26.18-.56.19-.67 0l-1.6-2.45c-.12-.17-.38-.14-.58.08l-3.44 3.63a.91.91 0 0 0-.27.76l1 3.24a1.06 1.06 0 0 1-.18.78 27.9 27.9 0 0 0-1.58 2.75 1.27 1.27 0 0 1-.75.55l-2.94.71a1 1 0 0 0-.67.56l-1.48 5a.35.35 0 0 0 .37.45l2.69.16a.43.43 0 0 1 .45.43 15 15 0 0 0 0 2.59 1.22 1.22 0 0 1-.29.8l-3 3.63a.85.85 0 0 0-.18.75l1.4 3.13a.14.14 0 0 0 .06.07h.12a.53.53 0 0 0 .35-.16l3.2-2.93a.56.56 0 0 1 .7-.12 5.4 5.4 0 0 0 1.37.8.5.5 0 0 1 .32.56l-1 4.48a.29.29 0 0 0 .13.31.56.56 0 0 0 .3 0l3.13-.31a.9.9 0 0 0 .69-.48l1.7-4.55a1.43 1.43 0 0 1 .68-.67c.33-.15.67-.33 1-.52s.63-.38.94-.6.56-.19.67 0l1.61 2.45a.19.19 0 0 0 .07.08.42.42 0 0 0 .5-.16l3.45-3.63a.92.92 0 0 0 .26-.75l-1-3.24a1.13 1.13 0 0 1 .18-.79 26.93 26.93 0 0 0 1.58-2.74 1.24 1.24 0 0 1 .75-.56l2.94-.71a1 1 0 0 0 .67-.55l1.48-5a.33.33 0 0 0-.16-.39Zm-11.62 9.55a8.9 8.9 0 0 1-4.08 2.64H195.55l-.28.05h-.62a3.15 3.15 0 0 1-3-2 5 5 0 0 1-.43-1.64 5.43 5.43 0 0 1-.05-.91 14.1 14.1 0 0 1 3.93-8.76 10.67 10.67 0 0 1 2.38-1.92 5.87 5.87 0 0 1 .79-.4 4.78 4.78 0 0 1 2.22-.47h.37a3.14 3.14 0 0 1 2.46 2c1.33 2.89-.19 8.02-3.4 11.41Z" style="fill:#ba68c8"/><path d="M211.54 280.07a.42.42 0 0 0-.2-.05l-2.69-.15a.44.44 0 0 1-.45-.44q.06-.65.06-1.26a11.65 11.65 0 0 0 0-1.33 1.23 1.23 0 0 1 .29-.79l3-3.64a.78.78 0 0 0 .18-.74l-1.42-3.15a.18.18 0 0 0-.09-.1c-.12-.06-.29 0-.46.14l-3.2 2.92a.56.56 0 0 1-.7.12 5.09 5.09 0 0 0-1.37-.79.51.51 0 0 1-.32-.56l1-4.49a.25.25 0 0 0-.13-.31.48.48 0 0 0-.3-.06l-3.13.32a.86.86 0 0 0-.69.47l-1.69 4.56a1.53 1.53 0 0 1-.69.66 14.4 14.4 0 0 0-1.94 1.12c-.26.18-.56.19-.67 0l-1.6-2.45c-.12-.17-.38-.14-.58.08l-3.44 3.63a.91.91 0 0 0-.27.76l1 3.24a1.06 1.06 0 0 1-.18.78 27.9 27.9 0 0 0-1.58 2.75 1.27 1.27 0 0 1-.75.55l-2.94.71a1 1 0 0 0-.67.56l-1.48 5a.35.35 0 0 0 .37.45l2.69.16a.43.43 0 0 1 .45.43 15 15 0 0 0 0 2.59 1.22 1.22 0 0 1-.29.8l-3 3.63a.85.85 0 0 0-.18.75l1.4 3.13a.14.14 0 0 0 .06.07h.12a.53.53 0 0 0 .35-.16l3.2-2.93a.56.56 0 0 1 .7-.12 5.4 5.4 0 0 0 1.37.8.5.5 0 0 1 .32.56l-1 4.48a.29.29 0 0 0 .13.31.56.56 0 0 0 .3 0l3.13-.31a.9.9 0 0 0 .69-.48l1.7-4.55a1.43 1.43 0 0 1 .68-.67c.33-.15.67-.33 1-.52s.63-.38.94-.6.56-.19.67 0l1.61 2.45a.19.19 0 0 0 .07.08.42.42 0 0 0 .5-.16l3.45-3.63a.92.92 0 0 0 .26-.75l-1-3.24a1.13 1.13 0 0 1 .18-.79 26.93 26.93 0 0 0 1.58-2.74 1.24 1.24 0 0 1 .75-.56l2.94-.71a1 1 0 0 0 .67-.55l1.48-5a.33.33 0 0 0-.16-.39Zm-11.62 9.55a8.9 8.9 0 0 1-4.08 2.64H195.55l-.28.05h-.62a3.15 3.15 0 0 1-3-2 5 5 0 0 1-.43-1.64 5.43 5.43 0 0 1-.05-.91 14.1 14.1 0 0 1 3.93-8.76 10.67 10.67 0 0 1 2.38-1.92 5.87 5.87 0 0 1 .79-.4 4.78 4.78 0 0 1 2.22-.47h.37a3.14 3.14 0 0 1 2.46 2c1.33 2.89-.19 8.02-3.4 11.41Z" style="opacity:.45"/><path d="m266.38 219 93.16-53.79c1.2-.69 2.17-.13 2.17 1.25v84.11a4.78 4.78 0 0 1-2.17 3.75l-93.16 53.8c-1.19.69-2.16.13-2.16-1.25v-84.13a4.8 4.8 0 0 1 2.16-3.74Z" style="fill:#37474f;opacity:.7000000000000001"/><path d="m264.86 220.61-4.07-2.35a4.48 4.48 0 0 0-.64 2.14v84.11a1.54 1.54 0 0 0 .62 1.39c.4.24 3.67 2.09 4 2.33a1.56 1.56 0 0 1-.59-1.38v-84.11a4.45 4.45 0 0 1 .68-2.13Z" style="fill:#263238;opacity:.7000000000000001"/><path d="M361 165c-.77-.47-3.61-2.08-4-2.29a1.53 1.53 0 0 0-1.55.14l-93.16 53.8a4.32 4.32 0 0 0-1.53 1.61l4.07 2.35a4.49 4.49 0 0 1 1.52-1.62l93.17-53.79a1.59 1.59 0 0 1 1.48-.2Z" style="fill:#455a64;opacity:.5"/><path d="M279.6 255a4.15 4.15 0 0 1 .29-1.66 11.4 11.4 0 0 1 .85-1.56l14.8-24a1.73 1.73 0 0 1 .26-.3 1 1 0 0 1 .17-.14.48.48 0 0 1 .6 0 1.07 1.07 0 0 1 .23.77v8.33a4.13 4.13 0 0 1-.43 1.89c-.29.57-.57 1.07-.83 1.51l-7 11.18 7 3.16a4.94 4.94 0 0 1 .83.55 1.75 1.75 0 0 1 .43 1.39v8.33a2.58 2.58 0 0 1-.23 1.05 1.56 1.56 0 0 1-.6.7.51.51 0 0 1-.17.07.57.57 0 0 1-.26 0l-14.8-6.89a2.19 2.19 0 0 1-.85-.57 2.1 2.1 0 0 1-.29-1.32ZM316.38 210.37a8.36 8.36 0 0 1 .59-1.59 2.8 2.8 0 0 1 1.14-1.24l4.9-2.82a.47.47 0 0 1 .61 0 1.06 1.06 0 0 1 .26.79 2.92 2.92 0 0 1-.08.59L310.5 263a7.21 7.21 0 0 1-.56 1.53 2.86 2.86 0 0 1-1.18 1.3l-4.76 2.76a.48.48 0 0 1-.62 0 1.06 1.06 0 0 1-.25-.79 2.35 2.35 0 0 1 .08-.59ZM346.33 219a4.33 4.33 0 0 1-.29 1.66 11.35 11.35 0 0 1-.85 1.55l-14.8 24a2.31 2.31 0 0 1-.26.3.89.89 0 0 1-.18.13.45.45 0 0 1-.59 0 1 1 0 0 1-.24-.77v-8.33a4.11 4.11 0 0 1 .44-1.89c.29-.57.56-1.07.83-1.51l6.94-11.18-6.94-3.16a4.18 4.18 0 0 1-.83-.56 1.73 1.73 0 0 1-.44-1.39v-8.32a2.44 2.44 0 0 1 .24-1 1.55 1.55 0 0 1 .59-.7.58.58 0 0 1 .18-.08.79.79 0 0 1 .26 0l14.8 6.89a1.6 1.6 0 0 1 1.14 1.89Z" style="fill:#fafafa"/><path d="M254.13 226.93a1.59 1.59 0 0 0-1.44.2l-93.17 53.79a4.8 4.8 0 0 0-2.16 3.75v84.11a1.56 1.56 0 0 0 .59 1.38c-.37-.24-3.64-2.09-4-2.33a1.54 1.54 0 0 1-.62-1.39v-84.11a4.78 4.78 0 0 1 2.17-3.75l93.16-53.8a1.53 1.53 0 0 1 1.55-.14c.31.21 3.15 1.82 3.92 2.29Z" style="fill:#ba68c8;opacity:.7000000000000001"/><path d="m159.52 280.92 93.16-53.79c1.2-.69 2.17-.13 2.17 1.25v84.11a4.78 4.78 0 0 1-2.17 3.75L159.52 370c-1.19.69-2.16.13-2.16-1.25v-84.08a4.8 4.8 0 0 1 2.16-3.75Z" style="fill:#ba68c8;opacity:.7000000000000001"/><path d="m158 282.54-4.07-2.35a4.48 4.48 0 0 0-.64 2.14v84.11a1.54 1.54 0 0 0 .62 1.39c.4.24 3.67 2.09 4 2.33a1.56 1.56 0 0 1-.59-1.38v-84.11a4.45 4.45 0 0 1 .68-2.13Z" style="opacity:.15"/><path d="M254.13 226.93c-.77-.47-3.61-2.08-4-2.29a1.53 1.53 0 0 0-1.55.14l-93.16 53.8a4.4 4.4 0 0 0-1.53 1.61l4.07 2.35a4.49 4.49 0 0 1 1.52-1.62l93.17-53.79a1.59 1.59 0 0 1 1.48-.2Z" style="fill:#fff;opacity:.5"/><path d="m218.34 308.82 7.36 10.35-33.27-30.28-35.07 59.4v20.5c0 1.38 1 1.94 2.16 1.25l93.16-53.8a4.78 4.78 0 0 0 2.17-3.75v-11.26L230 283.37ZM222.35 259c4.35-2.51 7.87-.47 7.87 4.54a17.38 17.38 0 0 1-7.87 13.63c-4.34 2.51-7.86.47-7.86-4.54a17.4 17.4 0 0 1 7.86-13.63Z" style="fill:#fafafa;opacity:.9500000000000001"/><path d="M253.65 227.83c.19 0 .2.49.2.55v84.11a3.81 3.81 0 0 1-1.67 2.89L159 369.17a.92.92 0 0 1-.46.16c-.2 0-.2-.49-.2-.54v-84.12a3.81 3.81 0 0 1 1.66-2.88L253.18 228a1 1 0 0 1 .47-.16m0-1a2 2 0 0 0-1 .3l-93.16 53.79a4.8 4.8 0 0 0-2.16 3.75v84.12c0 1 .49 1.54 1.2 1.54a1.92 1.92 0 0 0 1-.29l93.16-53.8a4.78 4.78 0 0 0 2.17-3.75v-84.12c0-1-.49-1.55-1.2-1.55Z" style="fill:#ba68c8"/><path d="M203.52 409.06c-1.74 1-5 .95-6 2.14v4.29l19.9-2.91 7.53 4.41-2.86 6-20.09-1.36v4.28q.63.45 1.35.87c8.4 4.92 22.14 5 30.67.13 4.31-2.45 6.46-5.67 6.46-8.9v-4.27l-1.18.19-.14-.24 75.32-43.48c7.62 1.61 16.49.67 22.67-2.84 3.2-1.82 5.21-4.06 6-6.42v-4.29l-19.9 7.19-7.53-4.41 2.86-6 20.1-2.94v-4.29s-23.49-1.56-32 3.29a13.93 13.93 0 0 0-5.32 4.92l-1.14-.42v4.26a7.92 7.92 0 0 0 1.3 4.47l-75.31 43.48c-7.64-1.59-16.52-.66-22.69 2.85Z" style="fill:#263238"/><path style="fill:#37474f" d="M314.43 370.21v-4.29l-75.31 43.48-.01 4.29 75.32-43.48z"/><path d="m301.51 358.46-75.32 43.48c-7.62-1.61-16.5-.68-22.67 2.83-3.2 1.82-5.21 4.07-6 6.43l19.9-2.91 7.53 4.41-2.86 6-20.09 2.93c.42.29.87.58 1.35.86 8.4 4.93 22.14 5 30.67.14 6.26-3.56 8-8.76 5.15-13.23l75.31-43.48c7.62 1.61 16.5.68 22.67-2.83 3.2-1.82 5.21-4.07 6-6.43l-19.9 2.91-7.53-4.41 2.86-6 20.1-2.95c-.42-.29-.87-.58-1.35-.86-8.4-4.93-22.14-5-30.67-.14-6.27 3.58-7.98 8.79-5.15 13.25Z" style="fill:#455a64"/><path style="fill:#37474f" d="m317.31 356.09-1.6-.94 2.86-5.97 20.1-2.95v4.29l-20.1 2.94-1.26 2.63z"/><path style="fill:#ffa8a7" d="m403.78 105.62 1.84 10.19 10.21.51-2.36-13.54-9.69 2.84z"/><path d="M396.25 90.78a9.14 9.14 0 0 1 .83-8.8c3.52-5.46 10.72-8.17 18.69-6 4 1.08 9 5.18 9.46 14.71.3 5.86-16 10.09-15.65 14.1Z" style="fill:#263238"/><path d="M395.89 93s-2.24 3.54-1.93 3.9a5.57 5.57 0 0 0 1.79.72Z" style="fill:#f28f8f"/><path d="M400.77 82.6c-2.22 1.21-5 3.22-5.26 11-.23 8.55 1 11.09 2.2 12.18.8.73 5 .65 7.09-.05 2.62-.87 8.5-3.32 11.07-7.76 3-5.22 3.53-12.1-.15-14.71-5.19-3.67-13.07-1.68-14.95-.66Z" style="fill:#ffa8a7"/><path d="M398.61 82.56s-3.58 7.76 4.1 12.22c0 0 1.3-3 3.92-2.24s2.47 4.31.45 6.13-3.14.67-3.14.67a8 8 0 0 0 2.62 5.43 12.39 12.39 0 0 0 14.84-3.3c6.13-6.84 5.06-18.85-4.26-21.73s-18.53 2.82-18.53 2.82Z" style="fill:#263238"/><path d="M436.74 113.92a10.37 10.37 0 0 1-11-9.67l-1.2-17.75a10.36 10.36 0 0 1 11 9.67Z" style="fill:#263238"/><path d="m428 255.66-.27-8.83 7.32-1.26.42 7.53c.35 1.76 1.6 2.33 1.91 3.32s-5 11.09-8 13.33-7.81-.63-8.29-1.71 4-.27 4.71-1.81c.96-2.08 2.2-10.57 2.2-10.57Z" style="fill:#ffa8a7"/><path d="M436.12 254.57c-1 .8-1.7 2.82-3 5.59s-3.22 7.27-5.27 7.91c-2.4.74-7.1-.62-4.1-.85.66-.05 1.8-.3 2.11-1a5.75 5.75 0 0 0 .29-.77 9.18 9.18 0 0 1-3.2.3c-1.84-.08-3.2.34-4.16 1.79-.5.75.3 2 .3 2 .91 1.13 2.63 2.24 6.57 2.54s6.28-.28 7.69-3c1.72-3.24 4.76-6.69 6-8.52 1.44-2.16-.94-5.4-3.23-5.99Z" style="fill:#263238"/><path d="M426 265.62c-.24.61-2 .79-2.84.91s-1.27.91.13 1.36c2.44.26 3.63-2.31 2.71-2.27ZM421.85 110.06c3.08-.61 6.42 2.87 8.07 5.67s9.85 17.41 10.76 19.87 1.19 3-1.95 6.22S425.3 154 425.3 154l-3.44-7.06 8.78-9.93-9.76-14.19Z" style="fill:#ffa8a7"/><path d="M420.21 110s3.29-.75 5 .35a19.26 19.26 0 0 1 5.86 6.87c2 3.56 6.87 12.48 6.87 12.48a11.74 11.74 0 0 1-8.45 6.16l-6.42-8.22Z" style="fill:#ba68c8"/><path d="M420.21 110s3.29-.75 5 .35a19.26 19.26 0 0 1 5.86 6.87c2 3.56 6.87 12.48 6.87 12.48a11.74 11.74 0 0 1-8.45 6.16l-6.42-8.22Z" style="opacity:.1"/><path d="M435.63 249.45s-4.44 2-8.24 1.19c0 0-3.38-12.17-7-26.59-3.65-14.66-7.52-31.64-8.29-40.49-1-12 1.56-28.37 3.31-37.44.79-4.15 1.41-6.79 1.41-6.79l5.62-.62c1.46 2.07 3 4 4.52 6a34.08 34.08 0 0 1 5.84 10.55v.11c3.89 12.81-3.05 37.64-3.68 47.51a24 24 0 0 1 4.28 11.72c.52 4.06 2.23 34.85 2.23 34.85Z" style="fill:#37474f"/><path d="m410.16 264.44-.27-8.82 7.32-1.27.42 7.53c.35 1.76 1.6 2.33 1.91 3.32s-5 11.1-8 13.33-7.81-.63-8.29-1.71 4-.27 4.71-1.81c1.04-2.08 2.2-10.57 2.2-10.57Z" style="fill:#ffa8a7"/><path d="M418.28 263.35c-1 .8-1.71 2.82-3 5.59s-3.21 7.27-5.27 7.91c-2.39.75-7.09-.62-4.09-.85.65-.05 1.8-.3 2.1-1a4.31 4.31 0 0 0 .29-.77 9.09 9.09 0 0 1-3.19.3c-1.84-.08-3.2.34-4.16 1.79-.5.75.3 2 .3 2 .91 1.13 2.63 2.24 6.57 2.55 3.79.29 6.27-.29 7.69-3 1.71-3.25 4.75-6.7 6-8.52 1.42-2.16-.96-5.41-3.24-6Z" style="fill:#263238"/><path d="M408.23 274.4c-.24.61-2 .79-2.84.91s-1.27.92.13 1.37c2.42.26 3.61-2.32 2.71-2.28Z" style="fill:#ffa8a7"/><path d="M432.83 155.27c-.79 4.77-2.95 10-10.45 14.2-1.33 14.59-4.39 28-5 37a22.14 22.14 0 0 1 3.34 9.85c.05 1-.09 3.89-.34 7.76-.78 12.28-2.58 34.19-2.58 34.19s-4.43 1.95-8.24 1.19c0 0-8-53.44-10.28-70.9a178.9 178.9 0 0 1-.84-38.1l17-4.31 11.55-1.4a34.08 34.08 0 0 1 5.84 10.52Z" style="fill:#455a64"/><path d="M424.67 138.71c0-.08.86-5.88 1.71-11.13 1.37-8.36-4.34-17.5-4.53-17.52a56 56 0 0 0-7.1.09s-.11 1.39-3 1.95a13.44 13.44 0 0 1-6.89-.38c-.54 0-6.81.49-5.42.39.07.51-5.13 12.49-5.13 12.49a7.76 7.76 0 0 0-.2 8.78 10.77 10.77 0 0 0 2.87 3.07c.45 3.27.85 6.15.85 6.15l-.05 16.4s7.57 1.93 19.92-.43c10.45-2 13.94-7.08 13.94-7.08Z" style="fill:#ba68c8"/><path d="M399.46 112.11c-6.66.36-6.31.83-14.75 6.11-7.88 4.92-15.41 9.15-15.41 9.15l-21.25-6.24a5.17 5.17 0 0 1-2.25-2.13c-1.26-2.09-2.78-2.81-4.38-4.39-1.26-1.23-1.56-2.27-2-2.12a2 2 0 0 0-.94 2.55 14.13 14.13 0 0 0 1.54 3 20.09 20.09 0 0 1-4.95-3.1c-3.5-2.94-6.08-4.34-6.22 1.5-.09 3.66 2.91 7.82 10.94 10.69 2.31.83 5.9 1.38 8.93 2.62 7.81 3.43 19.41 8.29 21.85 8.05 1.75-.17 25.63-11.19 25.63-11.19a17.09 17.09 0 0 0 3.26-14.5Z" style="fill:#ffa8a7"/><path d="M401 112a18 18 0 0 0-10 1.94c-5.37 2.79-16 9.81-16 9.81s.89 9.05 5 10.88l17.87-7.5s6.37-7.2 3.13-15.13Z" style="fill:#ba68c8"/><path d="M401 112a18 18 0 0 0-10 1.94c-5.37 2.79-16 9.81-16 9.81s.89 9.05 5 10.88l17.87-7.5s6.37-7.2 3.13-15.13Z" style="opacity:.1"/></svg>