<svg xmlns="http://www.w3.org/2000/svg" viewBox="0 0 500 500"><path d="M107.58 426.56c81.26 39.87 213 39.88 294.26 0s81.25-104.53 0-144.41-213-39.88-294.26 0-81.25 104.53 0 144.41Z" style="fill:#f5f5f5"/><ellipse cx="395.13" cy="387.92" rx="33.01" ry="15.73" style="fill:#e6e6e6"/><path d="M253.49 247.28 216 268.93a7 7 0 0 0-3 4.32l-9.32 53.81a4.47 4.47 0 0 0 2 4.32l24.18 14a5.59 5.59 0 0 0 5 0l51.68-29.84a4.74 4.74 0 0 0 0-8.37L268 296.4a6.44 6.44 0 0 1-2.82-4.35L261 251.44a6.23 6.23 0 0 0-2.66-4.25 5.36 5.36 0 0 0-4.85.09Z" style="fill:#263238"/><path d="M232.37 335.88v10.06a5.16 5.16 0 0 0 2.52-.6l51.68-29.84a5.38 5.38 0 0 0 2.52-4.18 5 5 0 0 0-1-2.73h-8.46Z" style="fill:#455a64"/><path d="m258.21 250-37.5 21.66a7 7 0 0 0-3 4.32l-8.47 48.84a4.5 4.5 0 0 0 2 4.33l18.59 10.73a5.59 5.59 0 0 0 5 0L286.57 310c1.4-.8 1.4-2.1 0-2.91L268 296.4a6.44 6.44 0 0 1-2.82-4.35L261 251.44a1.75 1.75 0 0 0-2.79-1.44Z" style="fill:#263238"/><path d="M286.57 307.13 268 296.4a5.83 5.83 0 0 1-1.85-1.85l-56.56 32.65a4.27 4.27 0 0 0 1.67 1.95l18.59 10.73a5.59 5.59 0 0 0 5 0L286.57 310c1.43-.76 1.43-2.06 0-2.87Z" style="fill:#37474f"/><path d="m134.31 354.3-2.4-1.39a7.79 7.79 0 0 1-3.53-6.11v-161a7.77 7.77 0 0 1 3.53-6.1l196.76-113a7.81 7.81 0 0 1 7.06 0l1.83 1a7.8 7.8 0 0 1 3.53 6.11v161.1a7.79 7.79 0 0 1-3.53 6.11L141.37 354.3a7.84 7.84 0 0 1-7.06 0Z" style="fill:#455a64"/><path d="m142.56 189.86-13.14-7.59a7.21 7.21 0 0 0-1 3.48V346.8a7.79 7.79 0 0 0 3.53 6.11l2.4 1.39a7.84 7.84 0 0 0 7.06 0l1.19-.7Z" style="fill:#263238"/><path d="M137.84 352.26v-161a7.79 7.79 0 0 1 3.53-6.11L337.56 71.82c1.95-1.12 3.53-.21 3.53 2v161.09a7.79 7.79 0 0 1-3.53 6.11L141.37 354.3c-1.95 1.12-3.53.21-3.53-2.04Z" style="fill:#37474f"/><path d="m230 292.23 18.59-10.74c1.39-.8 2.52-.23 2.52 1.28a5.39 5.39 0 0 1-2.52 4.18L230 297.69c-1.4.8-2.52.23-2.52-1.28a5.38 5.38 0 0 1 2.52-4.18Z" style="fill:#e0e0e0"/><path d="M146.88 190 331.65 83c1.11-.64 2-.12 2 1.16v140.41a4.46 4.46 0 0 1-2 3.49L146.88 334.74c-1.12.64-2 .12-2-1.17v-140a4.46 4.46 0 0 1 2-3.57Z" style="fill:#fff"/><path d="m160.2 193.53 193.91-112c3.08-1.77 5.6-.32 5.6 3.23v126.55a5.77 5.77 0 0 1-2.6 4.5L159.2 330.08c-1.43.83-2.6.15-2.6-1.5V199.77a8 8 0 0 1 3.6-6.24Z" style="fill:#e0e0e0"/><path d="M359.71 87.71v-2.92c0-3.55-2.52-5-5.6-3.23l-193.91 112a8 8 0 0 0-3.6 6.24v5.2Z" style="fill:#ba68c8"/><path d="M336.24 94.37a4.24 4.24 0 0 0-1.92 3.33c0 1.23.86 1.73 1.92 1.12a4.26 4.26 0 0 0 1.93-3.34c0-1.23-.86-1.73-1.93-1.11ZM343.89 90a4.26 4.26 0 0 0-1.89 3.29c0 1.23.86 1.73 1.93 1.11a4.27 4.27 0 0 0 1.93-3.34c-.04-1.23-.86-1.72-1.97-1.06ZM351.54 85.54a4.24 4.24 0 0 0-1.93 3.33c0 1.23.86 1.73 1.93 1.12a4.27 4.27 0 0 0 1.92-3.34c0-1.23-.86-1.73-1.92-1.11Z" style="fill:#fff"/><path d="M347.46 109.94c-.16-.53-.66-.7-1.25-.36l-123.32 71.21a2.61 2.61 0 0 0-.92 1l-4.06-2.35a2.61 2.61 0 0 1 .92-1l123.32-71.2a2.84 2.84 0 0 1 2.6 0l1.46.84a2.86 2.86 0 0 1 1.25 1.86Z" style="fill:#ebebeb"/><path d="M347.51 110.33v53.29a2.86 2.86 0 0 1-1.3 2.25l-123.32 71.2-.18.09a1.09 1.09 0 0 1-.24.07c-.49.07-.84-.28-.84-.92V183a2.67 2.67 0 0 1 .38-1.28 2.61 2.61 0 0 1 .92-1l123.32-71.21c.59-.34 1.09-.17 1.25.36a.3.3 0 0 1 0 .1 1.43 1.43 0 0 1 .01.36Z" style="fill:#fafafa"/><path d="M222.43 237.24a3 3 0 0 1-1.23.11 2.26 2.26 0 0 1-.91-.28l-1.46-.84a2.89 2.89 0 0 1-1.3-2.25v-53.29a2.62 2.62 0 0 1 .38-1.28l4.06 2.35a2.67 2.67 0 0 0-.38 1.28v53.28c0 .68.35.99.84.92Z" style="fill:#e0e0e0"/><path d="M343.68 138.88a.5.5 0 0 0-.68.22l-4.36 8.63a1.57 1.57 0 0 0-.46-.43 1.91 1.91 0 0 0-1.93.14 5.08 5.08 0 0 0-2.24 3.37l-8.38-1.36a1.74 1.74 0 0 0-.8-1.32 1.93 1.93 0 0 0-1.94.14 4.37 4.37 0 0 0-1.28 1.19l-10.61-9.7a4.51 4.51 0 0 0 .47-1.89 1.73 1.73 0 0 0-2.78-1.6 5 5 0 0 0-2.28 3.95 1.91 1.91 0 0 0 .83 1.73l-7.55 22.73a2.06 2.06 0 0 0-1.57.29 4.8 4.8 0 0 0-1.78 2l-9.08-6.55v-.13a1.73 1.73 0 0 0-2.78-1.6 5 5 0 0 0-2.28 4 2.27 2.27 0 0 0 .35 1.27l-7.35 21.54a2.31 2.31 0 0 0-1 .34 5 5 0 0 0-2.26 3.64L260.56 196a1.65 1.65 0 0 0-.72-1 1.91 1.91 0 0 0-1.94.15 5 5 0 0 0-2.11 2.83l-7.35-3a4 4 0 0 0 .05-.59 1.73 1.73 0 0 0-2.78-1.61 5 5 0 0 0-2.28 3.95 2.49 2.49 0 0 0 .15.86l-8.39 16.05a2 2 0 0 0-1.66.25 5 5 0 0 0-2.26 3.65L225.4 221a.51.51 0 0 0-.18.69.5.5 0 0 0 .43.25.55.55 0 0 0 .25-.07l5.47-3.16a1.65 1.65 0 0 0 .72 1 1.62 1.62 0 0 0 .78.2 2.36 2.36 0 0 0 1.16-.34 5 5 0 0 0 2.28-4 2.18 2.18 0 0 0-.33-1.21l8.28-15.82a1.45 1.45 0 0 0 .77.2 2.33 2.33 0 0 0 1.16-.34 4.92 4.92 0 0 0 1.95-2.4l7.47 3v.11a1.92 1.92 0 0 0 .84 1.75 1.62 1.62 0 0 0 .78.2 2.35 2.35 0 0 0 1.16-.35 5 5 0 0 0 2.26-3.64l11.35-6.53a1.63 1.63 0 0 0 .72 1 1.52 1.52 0 0 0 .78.21 2.38 2.38 0 0 0 1.16-.35 5 5 0 0 0 2.28-3.95 1.94 1.94 0 0 0-.77-1.69l7.23-21.17a1.42 1.42 0 0 0 .42.06 2.38 2.38 0 0 0 1.16-.35 5 5 0 0 0 2.07-2.73l8.92 6.42a3.74 3.74 0 0 0-.14 1 1.92 1.92 0 0 0 .84 1.75 1.62 1.62 0 0 0 .78.2 2.35 2.35 0 0 0 1.16-.35 5 5 0 0 0 2.28-4 2.19 2.19 0 0 0-.36-1.27l7.69-23.16a2.34 2.34 0 0 0 1-.31 4.52 4.52 0 0 0 1.29-1.19l10.63 9.69a4.45 4.45 0 0 0-.48 1.89 1.9 1.9 0 0 0 .84 1.75 1.51 1.51 0 0 0 .78.2 2.33 2.33 0 0 0 1.16-.34 5 5 0 0 0 2.23-3.37l8.39 1.37a1.74 1.74 0 0 0 .8 1.31 1.5 1.5 0 0 0 .78.21 2.38 2.38 0 0 0 1.16-.35 5 5 0 0 0 2.27-3.81l4.88-9.64a.5.5 0 0 0-.27-.69Zm-110.15 79.75a1 1 0 0 1-.94.14 1 1 0 0 1-.35-.88 4 4 0 0 1 1.76-3.09 1.44 1.44 0 0 1 .65-.21.61.61 0 0 1 .28.07 1 1 0 0 1 .35.88 4 4 0 0 1-1.75 3.09Zm12.18-21.11a1 1 0 0 1-.93.14 1 1 0 0 1-.35-.88 4 4 0 0 1 1.78-3.08 1.36 1.36 0 0 1 .66-.21.64.64 0 0 1 .28.06 1 1 0 0 1 .34.89 4 4 0 0 1-1.78 3.08Zm12.19 2.35a1 1 0 0 1-.94.14 1 1 0 0 1-.34-.88 4 4 0 0 1 1.78-3.13 1.36 1.36 0 0 1 .66-.21.53.53 0 0 1 .28.07 1 1 0 0 1 .34.88 4 4 0 0 1-1.78 3.13Zm16.25-9.38a1 1 0 0 1-.94.14 1 1 0 0 1-.35-.88 4 4 0 0 1 1.79-3.09 1.33 1.33 0 0 1 .65-.21.51.51 0 0 1 .28.07 1 1 0 0 1 .35.88 4 4 0 0 1-1.78 3.09Zm10.32-27.1a1 1 0 0 1-.94.14l-.08-.07a1.13 1.13 0 0 1-.24-.79 4 4 0 0 1 1.78-3.09 1.33 1.33 0 0 1 .65-.21.61.61 0 0 1 .28.07 1 1 0 0 1 .35.88 4 4 0 0 1-1.8 3.07Zm13.63 6.27a1 1 0 0 1-.94.14 1 1 0 0 1-.34-.88 4 4 0 0 1 1.78-3.09 1.36 1.36 0 0 1 .66-.21.53.53 0 0 1 .28.07.38.38 0 0 1 .09.09 1.08 1.08 0 0 1 .25.79 4 4 0 0 1-1.78 3.09ZM308.67 141a1 1 0 0 1-.93.14 1 1 0 0 1-.35-.88 4 4 0 0 1 1.78-3.09 1.48 1.48 0 0 1 .66-.21.61.61 0 0 1 .28.07 1 1 0 0 1 .34.88 4 4 0 0 1-1.78 3.09Zm14.22 12a1 1 0 0 1-.94.14 1 1 0 0 1-.34-.88 4 4 0 0 1 1.78-3.08 1.36 1.36 0 0 1 .66-.21.53.53 0 0 1 .28.07c.22.12.34.44.34.88a4 4 0 0 1-1.78 3.08Zm13.36-.83a1 1 0 0 1-.94.15 1 1 0 0 1-.35-.89 4 4 0 0 1 1.79-3.08 1.33 1.33 0 0 1 .65-.21.51.51 0 0 1 .28.07 1 1 0 0 1 .35.88 4 4 0 0 1-1.78 3.04Z" style="fill:#ba68c8"/><path d="M274.35 217.82c-.16-.53-.67-.7-1.25-.36l-50.21 29a2.64 2.64 0 0 0-.95 1l-4.05-2.37a2.67 2.67 0 0 1 .94-1l50.2-29a2.84 2.84 0 0 1 2.6 0l1.47.84a2.93 2.93 0 0 1 1.25 1.89Z" style="fill:#ebebeb"/><path d="M274.4 218.21v39.22a2.89 2.89 0 0 1-1.29 2.25l-47.45 27.39-2.76 1.6-.2.1c-.62.22-1.07-.13-1.07-.86V248.7a2.58 2.58 0 0 1 .35-1.22 2.64 2.64 0 0 1 .95-1l50.21-29c.58-.34 1.09-.17 1.25.36v.1a1.43 1.43 0 0 1 .01.27Z" style="fill:#fafafa"/><path d="m222.66 288.78-.16.06a.9.9 0 0 1-.22.06 1.86 1.86 0 0 1-.34.06h-.34a3.27 3.27 0 0 1-.7-.08 2.34 2.34 0 0 1-.61-.23l-1.46-.85a2.86 2.86 0 0 1-1.3-2.25v-39.19a2.67 2.67 0 0 1 .36-1.25l4.05 2.37a2.58 2.58 0 0 0-.35 1.22v39.22c0 .73.41 1.08 1.07.86Z" style="fill:#e0e0e0"/><path d="M225.65 281.38v-26.14a1.92 1.92 0 0 1 .87-1.5l2.33-1.35c.48-.27.86 0 .86.5V279a1.91 1.91 0 0 1-.86 1.5l-2.33 1.34c-.52.32-.87.09-.87-.46ZM233.78 276.69v-30.83a1.9 1.9 0 0 1 .86-1.5L237 243c.48-.27.87 0 .87.5v30.83a1.89 1.89 0 0 1-.87 1.5l-2.33 1.35c-.51.29-.89.06-.89-.49ZM241.9 272v-14.8a1.92 1.92 0 0 1 .87-1.5l2.33-1.34c.47-.28.86-.05.86.5v14.79a1.88 1.88 0 0 1-.86 1.5l-2.33 1.35c-.48.28-.87.05-.87-.5ZM250 267.32v-19.19a1.91 1.91 0 0 1 .87-1.5l2.33-1.35c.48-.27.87-.05.87.5V265a1.89 1.89 0 0 1-.87 1.5l-2.33 1.35c-.46.25-.87.02-.87-.53ZM258.15 262.63v-6.53a1.92 1.92 0 0 1 .86-1.5l2.34-1.35c.47-.27.86-.05.86.5v6.53a1.92 1.92 0 0 1-.86 1.5l-2.35 1.35c-.46.27-.85.05-.85-.5ZM266.27 257.94v-21.46a1.92 1.92 0 0 1 .87-1.5l2.33-1.34c.48-.28.87 0 .87.5v21.45a1.89 1.89 0 0 1-.87 1.5l-2.33 1.35c-.48.27-.87.05-.87-.5Z" style="fill:#ba68c8"/><path d="M347.46 175.6c-.16-.53-.67-.7-1.25-.36l-62.39 36a2.64 2.64 0 0 0-.95 1l-4.05-2.37a2.67 2.67 0 0 1 .94-1l62.38-36a2.84 2.84 0 0 1 2.6 0l1.47.84a2.93 2.93 0 0 1 1.25 1.89Z" style="fill:#ebebeb"/><path d="M347.51 176v39.22a2.89 2.89 0 0 1-1.29 2.25l-59.63 34.43-2.76 1.6-.2.1c-.62.22-1.07-.13-1.07-.86v-39.22a2.58 2.58 0 0 1 .35-1.22 2.64 2.64 0 0 1 .95-1l62.39-36c.58-.34 1.09-.17 1.25.36v.1a1.43 1.43 0 0 1 .01.24Z" style="fill:#fafafa"/><path d="m283.59 253.6-.16.06a.9.9 0 0 1-.22.06 1.86 1.86 0 0 1-.34.06h-.34a3.27 3.27 0 0 1-.7-.08 2.34 2.34 0 0 1-.61-.23l-1.46-.85a2.86 2.86 0 0 1-1.3-2.25v-39.19a2.67 2.67 0 0 1 .36-1.25l4.05 2.37a2.58 2.58 0 0 0-.35 1.22v39.22c0 .73.48 1.08 1.07.86Z" style="fill:#e0e0e0"/><path d="m305.61 207.9-3.23 12a8.65 8.65 0 0 1-1.38 2.66l-10.43 12.53a6.14 6.14 0 0 1-2.52-4.1c-.73-4 1.33-9.54 5.36-14.39.69-.82 1.39-1.59 2.11-2.32a25.66 25.66 0 0 1 10.09-6.38ZM314.3 223.06c-4.63 7.79-13.43 13.67-20 13.26a7.42 7.42 0 0 1-2.62-.58l10.28-12.35a3.13 3.13 0 0 1 2.12-1h.11ZM313.41 207.7l-9.58 11.51L307 207.5a9.7 9.7 0 0 1 6.41.2ZM315 221.88l-10.71-.66a1.16 1.16 0 0 1-.35-.08.52.52 0 0 1 .09-.2.62.62 0 0 1 .09-.12l10.43-12.53c3.39 2.34 3.57 7.58.45 13.59ZM321.35 199.5c0 .72.59 1 1.3.55l19.5-11.26a2.68 2.68 0 0 0 1.3-2c0-.72-.58-1-1.3-.56l-19.5 11.26a2.74 2.74 0 0 0-1.3 2.01Z" style="fill:#ba68c8"/><path d="M321.35 207.34c0 .72.59 1 1.3.55l19.5-11.25a2.71 2.71 0 0 0 1.3-2.06c0-.72-.58-1-1.3-.55l-19.5 11.25a2.74 2.74 0 0 0-1.3 2.06ZM321.35 212.18c0 .72.59 1 1.3.55l19.5-11.26a2.68 2.68 0 0 0 1.3-2.05c0-.72-.58-1-1.3-.56l-19.5 11.26a2.74 2.74 0 0 0-1.3 2.06ZM321.35 217c0 .72.59 1 1.3.56l19.5-11.26a2.68 2.68 0 0 0 1.3-2.06c0-.72-.58-1-1.3-.55L322.65 215a2.71 2.71 0 0 0-1.3 2ZM321.35 221.85c0 .72.59 1 1.3.56l19.5-11.26a2.71 2.71 0 0 0 1.3-2.06c0-.72-.58-1-1.3-.55l-19.5 11.26a2.71 2.71 0 0 0-1.3 2.05Z" style="fill:#e0e0e0"/><path d="M205.29 213.14c-.16-.54-.66-.71-1.25-.36l-34 19.6a2.77 2.77 0 0 0-.92 1L165.1 231a2.69 2.69 0 0 1 .92-1l34-19.61a2.9 2.9 0 0 1 2.6 0l1.46.85a2.86 2.86 0 0 1 1.21 1.9Z" style="fill:#ebebeb"/><path d="M205.34 213.53v11.07a2.87 2.87 0 0 1-1.3 2.25l-34 19.6-.24.12h-.06c-.58.17-1-.18-1-.89v-11.05a2.59 2.59 0 0 1 .38-1.28 2.77 2.77 0 0 1 .92-1l34-19.6c.59-.35 1.09-.18 1.25.36a.3.3 0 0 1 0 .1 1.5 1.5 0 0 1 .05.32Z" style="fill:#fafafa"/><path d="M169.78 246.59a2.52 2.52 0 0 1-.49.13 2.9 2.9 0 0 1-1.52-.13l-.29-.14-1.46-.84a2.86 2.86 0 0 1-1.3-2.25v-11.07a2.7 2.7 0 0 1 .38-1.28l4.06 2.34a2.59 2.59 0 0 0-.38 1.28v11.07c0 .71.42 1.06 1 .89Z" style="fill:#e0e0e0"/><path d="M205.29 234.24c-.16-.54-.66-.71-1.25-.36l-34 19.6a2.77 2.77 0 0 0-.92 1l-4.06-2.34a2.69 2.69 0 0 1 .92-1l34-19.61a2.9 2.9 0 0 1 2.6 0l1.46.85a2.86 2.86 0 0 1 1.25 1.86Z" style="fill:#ebebeb"/><path d="M205.34 234.63v11.07A2.87 2.87 0 0 1 204 248l-34 19.6-.24.12h-.06c-.58.17-1-.18-1-.89v-11.1a2.59 2.59 0 0 1 .38-1.28 2.77 2.77 0 0 1 .92-1l34-19.6c.59-.35 1.09-.18 1.25.36a.3.3 0 0 1 0 .1 1.5 1.5 0 0 1 .09.32Z" style="fill:#fafafa"/><path d="M169.78 267.69a2.52 2.52 0 0 1-.49.13 2.9 2.9 0 0 1-1.52-.13l-.29-.14-1.46-.84a2.86 2.86 0 0 1-1.3-2.25v-11.07a2.7 2.7 0 0 1 .38-1.28l4.06 2.34a2.59 2.59 0 0 0-.38 1.28v11.07c0 .71.42 1.06 1 .89Z" style="fill:#e0e0e0"/><path d="M205.29 255.35c-.16-.54-.66-.71-1.25-.36l-34 19.6a2.77 2.77 0 0 0-.92 1l-4.06-2.34a2.69 2.69 0 0 1 .92-1l34-19.61a2.9 2.9 0 0 1 2.6 0l1.46.85a2.86 2.86 0 0 1 1.25 1.86Z" style="fill:#ebebeb"/><path d="M205.34 255.74v11.07a2.87 2.87 0 0 1-1.3 2.25l-34 19.6-.24.12h-.06c-.58.17-1-.18-1-.89v-11.05a2.59 2.59 0 0 1 .38-1.28 2.77 2.77 0 0 1 .92-1L204 255c.59-.35 1.09-.18 1.25.36a.3.3 0 0 1 0 .1 1.5 1.5 0 0 1 .09.28Z" style="fill:#fafafa"/><path d="M169.78 288.8a2.52 2.52 0 0 1-.49.13 2.9 2.9 0 0 1-1.52-.13l-.29-.14-1.46-.84a2.86 2.86 0 0 1-1.3-2.25V274.5a2.7 2.7 0 0 1 .38-1.28l4.06 2.34a2.59 2.59 0 0 0-.38 1.28v11.07c0 .71.42 1.09 1 .89Z" style="fill:#e0e0e0"/><path d="M205.29 276.46c-.16-.54-.66-.71-1.25-.36l-34 19.6a2.77 2.77 0 0 0-.92 1l-4.06-2.34a2.69 2.69 0 0 1 .92-1l34-19.61a2.9 2.9 0 0 1 2.6 0l1.46.85a2.86 2.86 0 0 1 1.25 1.86Z" style="fill:#ebebeb"/><path d="M205.34 276.85v11.07a2.87 2.87 0 0 1-1.3 2.25l-34 19.6-.24.12h-.06c-.58.17-1-.18-1-.89v-11a2.59 2.59 0 0 1 .38-1.28 2.77 2.77 0 0 1 .92-1l34-19.6c.59-.35 1.09-.18 1.25.36a.3.3 0 0 1 0 .1 1.5 1.5 0 0 1 .05.27Z" style="fill:#fafafa"/><path d="M169.78 309.91a2.52 2.52 0 0 1-.49.13 2.9 2.9 0 0 1-1.52-.13l-.29-.14-1.46-.84a2.86 2.86 0 0 1-1.3-2.25v-11.07a2.7 2.7 0 0 1 .38-1.28l4.06 2.34a2.59 2.59 0 0 0-.38 1.28V309c0 .73.42 1.08 1 .91Z" style="fill:#e0e0e0"/><path d="M208.86 195.61a.24.24 0 0 1 .13 0l-3.65-2.1v-1.13a1.5 1.5 0 0 0 0-.29.3.3 0 0 0 0-.1 2.86 2.86 0 0 0-1.25-1.86l-1.46-.85a2.9 2.9 0 0 0-2.6 0l-34 19.61a2.87 2.87 0 0 0-1.3 2.25v11.07a2.86 2.86 0 0 0 1.3 2.25l1.46.84.29.14a2.9 2.9 0 0 0 1.52.13 2.52 2.52 0 0 0 .49-.13h.06l.24-.12 34-19.6a2.87 2.87 0 0 0 1.3-2.25v-3.17l3.71-4.28a.25.25 0 0 0-.24-.41Z" style="fill:#ba68c8"/><path d="M169.78 225.48a2.52 2.52 0 0 1-.49.13 2.9 2.9 0 0 1-1.52-.13l-.29-.14-1.48-.84a2.86 2.86 0 0 1-1.3-2.25v-11.07a2.7 2.7 0 0 1 .38-1.28l4.06 2.34a2.59 2.59 0 0 0-.38 1.28v11.07c.02.71.44 1.06 1.02.89Z" style="opacity:.1"/><path d="M205.29 192c-.16-.54-.66-.71-1.25-.36l-34 19.6a2.77 2.77 0 0 0-.92 1l-4.06-2.34a2.69 2.69 0 0 1 .92-1l34-19.61a2.9 2.9 0 0 1 2.6 0l1.46.85a2.86 2.86 0 0 1 1.25 1.86ZM208.86 195.61h-3.52v-2.06l3.65 2.1a.24.24 0 0 0-.13-.04Z" style="fill:#fff;opacity:.4"/><path d="m99.39 374.32 7-4s3.37-18.54.85-34.47c-3.54-22.4-18.79-30.13-24.33-27.91s-6.84 8.87 3.16 21.81c5.93 7.64 13.51 23.78 13.32 44.57Z" style="fill:#ba68c8"/><path d="m99.39 374.32 7-4s3.37-18.54.85-34.47c-3.54-22.4-18.79-30.13-24.33-27.91s-6.84 8.87 3.16 21.81c5.93 7.64 13.51 23.78 13.32 44.57Z" style="opacity:.1"/><path d="M101.93 365.43h-.07a.5.5 0 0 1-.42-.56c2.9-21-5.54-43.95-15-53.21a.5.5 0 0 1 0-.71.49.49 0 0 1 .7 0c9.65 9.43 18.25 32.78 15.31 54.07a.51.51 0 0 1-.52.41Z" style="fill:#fff"/><path d="M79.93 385.57c-1.1.63-3.39-.76-4.26-1.35a10.54 10.54 0 0 1-3.52-4 9.87 9.87 0 0 1-.88-6 23 23 0 0 1 .75-3.16c.3-1 .59-2.05.88-3.07a7.69 7.69 0 0 0 .45-3.1c-.26-2.1-2.13-3.57-3.82-4.84-1.88-1.41-3.83-3.26-3.82-5.79a9 9 0 0 1 2.23-5.3c1.21-1.53 2.64-2.88 3.74-4.5a6.23 6.23 0 0 0 1.32-3.92 6.36 6.36 0 0 0-.86-2.45 35.76 35.76 0 0 1-2.69-4.93c-.61-1.77-.52-4 .86-5.23a5.8 5.8 0 0 1 4.35-1.09 10.09 10.09 0 0 1 4 1.43c4 2.23 6.31 7 10.57 8.7a42.54 42.54 0 0 0 5.15 1.27 6.35 6.35 0 0 1 4.26 2.91c1.56 3.12-1.34 7-.24 10.29 1 2.93 3.82 4.06 5.42 6.7a6.17 6.17 0 0 1 .75 3.84 18.29 18.29 0 0 1-1.62 6.5 45.91 45.91 0 0 1-3.56 5.84c-.07.07-19.29 11.15-19.46 11.25Z" style="fill:#ba68c8"/><path d="M91.32 379.5a.5.5 0 0 1-.48-.52c.82-19.85-8.53-41.77-15.33-48.14a.5.5 0 0 1 0-.7.51.51 0 0 1 .71 0c6.94 6.5 16.48 28.78 15.65 48.91a.5.5 0 0 1-.55.45Z" style="fill:#fff"/><path d="M88.34 356.05a.32.32 0 0 1-.14 0 67.71 67.71 0 0 0-14.41-2.32.5.5 0 0 1-.48-.52.49.49 0 0 1 .52-.48 68.87 68.87 0 0 1 14.66 2.37.5.5 0 0 1-.15 1Z" style="fill:#fff"/><path d="M163.31 334.2a3.32 3.32 0 0 0-2-2.74 10.47 10.47 0 0 0-9.5 0 3.34 3.34 0 0 0-2 2.74l-2.66 69.87c-.1 1.45.81 2.92 2.73 4a14.66 14.66 0 0 0 13.28 0c1.92-1.11 2.82-2.58 2.73-4Z" style="fill:#ba68c8"/><path d="M151.85 331.46c-2.62 1.51-2.62 4 0 5.48a10.47 10.47 0 0 0 9.5 0c2.62-1.51 2.62-4 0-5.48a10.47 10.47 0 0 0-9.5 0Z" style="opacity:.15"/><path d="M159.47 311.92a6.31 6.31 0 0 0-5.74 0 2 2 0 0 0-1.19 1.65v20.63a2 2 0 0 0 1.19 1.66 6.38 6.38 0 0 0 5.74 0 2 2 0 0 0 1.19-1.66v-20.63a2 2 0 0 0-1.19-1.65Z" style="fill:#263238"/><path d="M201.8 261.39c0-.41 0-.81-.06-1.21s-.05-.79-.09-1.18-.05-.52-.08-.78c-.07-.68-.17-1.35-.28-2 0-.29-.1-.59-.16-.88s-.11-.55-.17-.82c-.17-.74-.35-1.46-.56-2.15-.11-.33-.21-.66-.32-1a.88.88 0 0 1-.05-.15c-.12-.32-.23-.63-.35-.93s-.28-.7-.44-1-.22-.49-.35-.73a3.6 3.6 0 0 0-.26-.52 5.28 5.28 0 0 0-.33-.62s-.05-.1-.08-.14-.21-.36-.32-.54-.15-.23-.22-.34a18.25 18.25 0 0 0-1.72-2.29l-.32-.36-.27-.28-.35-.35a11.18 11.18 0 0 0-1-.93c-.17-.15-.35-.29-.53-.42l-.55-.4a9.66 9.66 0 0 0-.89-.58l-.24-.15h-.05l-14.17-8.18h-.08a17.78 17.78 0 0 0-8.9-2.25c-4.64 0-9.88 1.52-15.43 4.72-19.06 11-34.52 37.78-34.52 59.8 0 11 3.84 18.7 10 22.32h.06l14.18 8.17h.06l.17.09a9.16 9.16 0 0 0 .82.43c.34.17.69.32 1 .46s.63.25 1 .35l.51.15a3.47 3.47 0 0 0 .55.16 5.73 5.73 0 0 0 .56.14 3 3 0 0 0 .41.09c.24.05.5.1.75.13a.51.51 0 0 0 .17 0l.9.12c5.15.54 11.12-.91 17.52-4.6 19.07-11 34.53-37.79 34.53-59.8-.02-.51-.03-1.03-.05-1.55Zm-23.12-15.57a31.09 31.09 0 0 1 1.08 8.4c0 19.42-14.21 44-31 53.74a30 30 0 0 1-7.87 3.27 31.18 31.18 0 0 1-1.09-8.41c0-19.42 14.21-44 31-53.74a29.86 29.86 0 0 1 7.88-3.26Z" style="fill:#ba68c8"/><path d="m142.41 324.9-13.77-7.9c-6.21-3.63-10-11.35-10-22.31 0-9.82 3.08-20.58 8.17-30.46l14.18 8.18c-5.1 9.88-8.17 20.64-8.17 30.46-.05 10.69 3.61 18.31 9.59 22.03Z" style="opacity:.1"/><path d="M201.8 261.39c0-.41 0-.81-.06-1.21s-.05-.79-.09-1.18-.05-.52-.08-.78c-.07-.68-.17-1.35-.28-2 0-.29-.1-.59-.16-.88s-.11-.55-.17-.82c-.17-.74-.35-1.46-.56-2.15-.11-.33-.21-.66-.32-1a.88.88 0 0 1-.05-.15c-.12-.32-.23-.63-.35-.93s-.28-.7-.44-1-.22-.49-.35-.73a3.6 3.6 0 0 0-.26-.52 5.28 5.28 0 0 0-.33-.62s-.05-.1-.08-.14-.21-.36-.32-.54-.15-.23-.22-.34a18.25 18.25 0 0 0-1.72-2.29l-.32-.36-.27-.28-.35-.35a11.18 11.18 0 0 0-1-.93c-.17-.15-.35-.29-.53-.42l-.55-.4a9.66 9.66 0 0 0-.89-.58c-6.27-3.81-15-3.36-24.71 2.23-19.07 11-34.53 37.78-34.53 59.8 0 11.15 4 18.94 10.35 22.48a9.16 9.16 0 0 0 .82.43c.34.17.69.32 1 .46s.63.25 1 .35l.51.15a3.47 3.47 0 0 0 .55.16 5.73 5.73 0 0 0 .56.14 3 3 0 0 0 .41.09c.24.05.5.1.75.13a.51.51 0 0 0 .17 0l.9.12c5.15.54 11.12-.91 17.52-4.6 19.07-11 34.53-37.79 34.53-59.8-.05-.5-.06-1.02-.08-1.54Zm-38 55.31c-4.28 2.47-8.4 3.77-11.92 3.77-6.61 0-9.65-4.51-11-9.24a31.18 31.18 0 0 1-1.09-8.41c0-19.42 14.21-44 31-53.74a29.86 29.86 0 0 1 7.88-3.26 17.26 17.26 0 0 1 4-.51c10.93 0 12.1 12.34 12.1 17.65.05 19.42-14.15 44.04-30.97 53.74Z" style="fill:#fff;opacity:.4"/><path d="M194.82 263c0 19.42-14.2 44-31 53.74-4.28 2.47-8.4 3.77-11.92 3.77-6.61 0-9.65-4.51-11-9.24a30 30 0 0 0 7.87-3.27c16.82-9.71 31-34.32 31-53.74a31.09 31.09 0 0 0-1.08-8.4 17.26 17.26 0 0 1 4-.51c10.96-.04 12.13 12.3 12.13 17.65Z" style="opacity:.1"/><path d="M188.78 259.57c0 19.42-14.2 44-31 53.74-4.28 2.47-8.4 3.77-11.92 3.77a12.55 12.55 0 0 1-2.09-.17 15.3 15.3 0 0 1-2.89-5.68 31.18 31.18 0 0 1-1.09-8.41c0-19.42 14.21-44 31-53.74a29.86 29.86 0 0 1 7.88-3.26 17.26 17.26 0 0 1 4-.51 12.67 12.67 0 0 1 2.1.17c3.5 4.07 4.01 10.6 4.01 14.09Z" style="fill:#fff;opacity:.7000000000000001"/><path d="m154.64 337.9-1.79 71.33a11.52 11.52 0 0 1-2.85-1.13c-1.92-1.11-2.83-2.58-2.73-4l2.66-69.86a3.34 3.34 0 0 0 2 2.74 8.77 8.77 0 0 0 2.71.92Z" style="opacity:.1"/><path d="M419.77 267.88c0-.77-1.49-9-2.48-13.54l-9.63 3 1.71 8.43 8.12 6.51c2.51-.55 2.34-3.63 2.28-4.4Z" style="fill:#ffa8a7"/><path d="M394.61 226.64h2.05A14.36 14.36 0 0 0 411 212.29a15.37 15.37 0 0 0-15.37-15.36 15.37 15.37 0 0 0-15.37 15.36 14.35 14.35 0 0 0 14.35 14.35Z" style="fill:#263238"/><path style="fill:#f28f8f" d="m373.2 250.61-4.55 8.34 7.08 6.07 6.49-10.28-9.02-4.13z"/><path d="M390.28 232c-4.51.05-9.48 1.69-11.19 5.23S372 251.8 372 251.8s4 5.84 10.32 5.43Z" style="fill:#ba68c8"/><path d="M390.28 232c-4.51.05-9.48 1.69-11.19 5.23S372 251.8 372 251.8s4 5.84 10.32 5.43Z" style="opacity:.1"/><path d="M405.51 380.33v-1c-.39 1.16-2.2 6.15-4.94 8.65-2.18 2-5.15 4.28-5.91 6.49s4.14 3.08 6.18 2.72a12.58 12.58 0 0 0 7.09-3.81c1.17-1.43 1.92-3.14 2.75-4.27s2.77-2.4 3.22-3.71a8.3 8.3 0 0 0-.4-3.62c-.32-1.22-.66-2.57-1.08-2.45v.75a5.44 5.44 0 0 1-3.46 1.17c-.96.05-3.46-.15-3.45-.92Z" style="fill:#263238"/><path d="M398.6 389.73c.68-.6 1.36-1.19 2-1.75a20.05 20.05 0 0 0 4.22-6.73 9.68 9.68 0 0 0 .72-3.64v-3.93h6.91v6.57c-.33 1.44-3.5 5.26-5.3 7.75-1.21 1.67-3.5 3.79-6.24 4.16s-4-.46-2.31-2.43Z" style="fill:#ffa8a7"/><path d="M379.84 373.66v-1c-.39 1.16-2.2 6.14-4.94 8.64-2.18 2-5.15 4.29-5.91 6.5s4.14 3.08 6.17 2.72a12.58 12.58 0 0 0 7.1-3.81c1.17-1.43 1.91-3.14 2.75-4.27s2.76-2.4 3.22-3.71a8.45 8.45 0 0 0-.4-3.62c-.32-1.22-.67-2.57-1.08-2.45v.75a5.47 5.47 0 0 1-3.46 1.17c-1.01.06-3.46-.14-3.45-.92Z" style="fill:#263238"/><path d="m372.93 383.07 2-1.75a20 20 0 0 0 4.21-6.73 9.5 9.5 0 0 0 .73-3.64V367h6.91v6.59c-.33 1.44-3.5 5.26-5.3 7.75-1.21 1.67-3.5 3.79-6.25 4.16-2.66.36-3.99-.5-2.3-2.43Z" style="fill:#ffa8a7"/><path d="M411 273c5.36 11.7-.19 52.91-.19 52.91.16 1.9 2.33 5.63 3.14 14 1 9.88-1.5 34.66-1.5 34.66a7.48 7.48 0 0 1-7 .28s-6.58-37.33-7.82-47.15c-1.08-8.56-3.16-28.69-3.16-28.69l-5.89 28.65a45.61 45.61 0 0 1 1.63 10.09c.14 5.8-3.38 31.24-3.38 31.24-.68 1.3-5.83 1.61-7.18 0 0 0-3-35.71-3.65-42.66-.36-4.15 4.37-55 4.37-55Z" style="fill:#37474f"/><path d="m394.53 299-1.73-9.57s-7.36-1.52-10.7-4.66a19.06 19.06 0 0 0 8.7 5.78l1.95 8.37-3.41 25.32Z" style="fill:#263238"/><path d="M401.6 232.33a13.52 13.52 0 0 1 9.06 7.41 11.74 11.74 0 0 1 .33 8.85l-4.79 13.84s2.24 5.42 4.84 10.53c-12 6.71-27 3.18-30.61-1.71-.15-1 .06-5.71-.23-11-.31-5.67-1.09-12.08-.2-15.59 1.65-6.51 4.76-12.62 10.93-12.62Z" style="fill:#ba68c8"/><path d="M401.6 232.33c4.09.58 10.47 1.39 13.29 11.35 2.75 9.71 3.39 13.09 3.39 13.09s-3.36 3.92-10.16 3.88l-2.12-7.48Z" style="fill:#ba68c8"/><path d="M386 204.71c-1.62.95-3.63 5-3.43 13.6.17 7.25 2.52 9 3.7 9.56s3.46.2 5.67-.17v4.35s-3.06 3.56-2.87 5.55 4.42 2.47 7.28.52a18.6 18.6 0 0 0 4.7-4.92v-10.52a2.77 2.77 0 0 0 3.94.37c2.44-1.62 2.53-5.64 1.11-7.08s-4.48-1-5.05 1a17.44 17.44 0 0 1-8.23-2.46 13.2 13.2 0 0 1-6.82-9.8Z" style="fill:#ffa8a7"/><path d="M390.68 216.48a.92.92 0 0 0 .86 1 .95.95 0 1 0-.86-1Z" style="fill:#263238"/><path d="m390.43 222.63-2.12.68a1.11 1.11 0 0 0 1.38.76 1.16 1.16 0 0 0 .74-1.44Z" style="fill:#f28f8f"/><path d="m383.2 213.68 1.8-1.28a1.08 1.08 0 0 0-1.53-.31 1.17 1.17 0 0 0-.27 1.59ZM383.62 215.82a.92.92 0 1 0 1-.9.94.94 0 0 0-1 .9Z" style="fill:#263238"/><path style="fill:#f28f8f" d="m387.93 215.3-.15 5.49-2.89-.89 3.04-4.6zM392 227.7c2.33-.31 7.13-1.68 7.88-3.58a4.93 4.93 0 0 1-1.68 2.42c-1.44 1.23-6.2 2.61-6.2 2.61Z"/><path d="M407.66 258.21a73.78 73.78 0 0 1-2.35-7.6s.38 5.65 2 8.69Z" style="opacity:.1"/><path style="fill:#e0e0e0" d="m353.77 250.1 26.48 6.97 7.82 32.87-25.18-7.32-9.12-32.52z"/><path d="M365.32 271.84c-.25.67-1.7 2.54-4.78 2.39l-.38-1.36ZM371.24 272.87c.11.88 1.91 2.5 5 3.51 3.46 1.16 8.78.55 8.78.55l-.48-1.64ZM361.53 254.86l-.22-1c-.12-.56 1.43-.59 3.47-.06l3.9 1c2 .53 3.79 1.41 3.91 2l.22 1Z" style="opacity:.1"/><path d="M359.69 251.05c-.08-.35.55-.44 1.41-.21l1.54.43s-.46-2.19 3-1.42a5.37 5.37 0 0 1 4.18 3.24l1.65.47c.91.26 1.73.75 1.84 1.1l.2.63-13.65-3.6s-.09-.29-.17-.64Z" style="fill:#37474f"/><path d="M361.57 252.14c1.25.3 1.77.46 1.95 1.32s.3 1.71.3 1.71l6 1.59s-.29-1.24-.38-1.73.11-.77 1.07-.52l.08-.38-9.46-2.41Z" style="fill:#37474f"/><path d="m361.36 255-.22-1c-.12-.56 1.44-.58 3.47-.05l3.9 1c2 .53 3.79 1.41 3.91 2l.22 1Z" style="fill:#37474f"/><path d="m417.49 272.23-8.12-6.51s-17.92 3.19-20 3.36a5.52 5.52 0 0 1-5.25-3.39c-.8-2.07-2.22-1.81-2.22-1.81s.63 2.62.82 3.45-4.85 1.53-7.65.58-6.85.43-4.34 4.24 7.4 4.26 10.79 4.26a34.54 34.54 0 0 0 4.24-.29c1.1-.14 2.19-.25 3.29-.33 6.95-.49 25.28-2.57 28.44-3.56ZM356.47 259.71s.95 3.38 1.17 4.19 3.31 2.27 5.25 2.8 4.08 1.17 3.16 3.89c-.85 2.51-4.05 3.09-5.69 3s-3.86-1.63-4.74-4.15c-1.12-3.2-.52-6.62-1-8.5s.87-2.35 1.85-1.23Z" style="fill:#ffa8a7"/><path d="M419.42 238.17a9.65 9.65 0 0 1-9.64-9.64V205.9a9.65 9.65 0 0 1 9.64 9.64Z" style="fill:#263238"/><path d="m409.47 206.69 4-2.14a2.19 2.19 0 0 0-3-1 2.38 2.38 0 0 0-1 3.14Z" style="fill:#263238"/><path d="m147.29 111-6.87 4a7.19 7.19 0 0 0 .06-.91v-2c0-3.54-2.48-5-5.55-3.2a10.66 10.66 0 0 0-3.3 3.17c-.51-4.44-4-6.1-8.24-3.65-4.58 2.64-8.3 9.08-8.3 14.37v3a7.79 7.79 0 0 0 .71 3.44l-5.7 3.29a6.82 6.82 0 0 0-3.1 5.29c0 2 1.38 2.75 3.08 1.77l37.19-21.47a6.79 6.79 0 0 0 3.07-5.33c.02-1.96-1.34-2.77-3.05-1.77Z" style="fill:#ebebeb"/></svg>